<?xml version="1.0" encoding="utf-8" standalone="no"?>
<!DOCTYPE svg PUBLIC "-//W3C//DTD SVG 1.1//EN"
  "http://www.w3.org/Graphics/SVG/1.1/DTD/svg11.dtd">
<svg xmlns:xlink="http://www.w3.org/1999/xlink" width="1080pt" height="720pt" viewBox="0 0 1080 720" xmlns="http://www.w3.org/2000/svg" version="1.1">
 <metadata>
  <rdf:RDF xmlns:dc="http://purl.org/dc/elements/1.1/" xmlns:cc="http://creativecommons.org/ns#" xmlns:rdf="http://www.w3.org/1999/02/22-rdf-syntax-ns#">
   <cc:Work>
    <dc:type rdf:resource="http://purl.org/dc/dcmitype/StillImage"/>
    <dc:date>2023-09-28T17:14:39.164091</dc:date>
    <dc:format>image/svg+xml</dc:format>
    <dc:creator>
     <cc:Agent>
      <dc:title>Matplotlib v3.7.3, https://matplotlib.org/</dc:title>
     </cc:Agent>
    </dc:creator>
   </cc:Work>
  </rdf:RDF>
 </metadata>
 <defs>
  <style type="text/css">*{stroke-linejoin: round; stroke-linecap: butt}</style>
 </defs>
 <g id="figure_1">
  <g id="patch_1">
   <path d="M 0 720 
L 1080 720 
L 1080 0 
L 0 0 
z
" style="fill: #ffffff"/>
  </g>
  <g id="axes_1">
   <g id="patch_2">
    <path d="M 79.4316 586.703794 
L 1067.5584 586.703794 
L 1067.5584 19.6416 
L 79.4316 19.6416 
z
" style="fill: #ffffff"/>
   </g>
   <g id="matplotlib.axis_1">
    <g id="xtick_1">
     <g id="line2d_1">
      <path d="M 124.346455 586.703794 
L 124.346455 19.6416 
" clip-path="url(#pb3575ef70c)" style="fill: none; stroke: #cccccc; stroke-width: 0.8; stroke-linecap: round"/>
     </g>
     <g id="text_1">
      <!-- lucene 3.1 (0.2%) -->
      <g style="fill: #262626" transform="translate(56.058501 667.682881) rotate(-45) scale(0.12 -0.12)">
       <defs>
        <path id="ArialMT-6c" d="M 409 0 
L 409 4581 
L 972 4581 
L 972 0 
L 409 0 
z
" transform="scale(0.015625)"/>
        <path id="ArialMT-75" d="M 2597 0 
L 2597 488 
Q 2209 -75 1544 -75 
Q 1250 -75 995 37 
Q 741 150 617 320 
Q 494 491 444 738 
Q 409 903 409 1263 
L 409 3319 
L 972 3319 
L 972 1478 
Q 972 1038 1006 884 
Q 1059 663 1231 536 
Q 1403 409 1656 409 
Q 1909 409 2131 539 
Q 2353 669 2445 892 
Q 2538 1116 2538 1541 
L 2538 3319 
L 3100 3319 
L 3100 0 
L 2597 0 
z
" transform="scale(0.015625)"/>
        <path id="ArialMT-63" d="M 2588 1216 
L 3141 1144 
Q 3050 572 2676 248 
Q 2303 -75 1759 -75 
Q 1078 -75 664 370 
Q 250 816 250 1647 
Q 250 2184 428 2587 
Q 606 2991 970 3192 
Q 1334 3394 1763 3394 
Q 2303 3394 2647 3120 
Q 2991 2847 3088 2344 
L 2541 2259 
Q 2463 2594 2264 2762 
Q 2066 2931 1784 2931 
Q 1359 2931 1093 2626 
Q 828 2322 828 1663 
Q 828 994 1084 691 
Q 1341 388 1753 388 
Q 2084 388 2306 591 
Q 2528 794 2588 1216 
z
" transform="scale(0.015625)"/>
        <path id="ArialMT-65" d="M 2694 1069 
L 3275 997 
Q 3138 488 2766 206 
Q 2394 -75 1816 -75 
Q 1088 -75 661 373 
Q 234 822 234 1631 
Q 234 2469 665 2931 
Q 1097 3394 1784 3394 
Q 2450 3394 2872 2941 
Q 3294 2488 3294 1666 
Q 3294 1616 3291 1516 
L 816 1516 
Q 847 969 1125 678 
Q 1403 388 1819 388 
Q 2128 388 2347 550 
Q 2566 713 2694 1069 
z
M 847 1978 
L 2700 1978 
Q 2663 2397 2488 2606 
Q 2219 2931 1791 2931 
Q 1403 2931 1139 2672 
Q 875 2413 847 1978 
z
" transform="scale(0.015625)"/>
        <path id="ArialMT-6e" d="M 422 0 
L 422 3319 
L 928 3319 
L 928 2847 
Q 1294 3394 1984 3394 
Q 2284 3394 2536 3286 
Q 2788 3178 2913 3003 
Q 3038 2828 3088 2588 
Q 3119 2431 3119 2041 
L 3119 0 
L 2556 0 
L 2556 2019 
Q 2556 2363 2490 2533 
Q 2425 2703 2258 2804 
Q 2091 2906 1866 2906 
Q 1506 2906 1245 2678 
Q 984 2450 984 1813 
L 984 0 
L 422 0 
z
" transform="scale(0.015625)"/>
        <path id="ArialMT-20" transform="scale(0.015625)"/>
        <path id="ArialMT-33" d="M 269 1209 
L 831 1284 
Q 928 806 1161 595 
Q 1394 384 1728 384 
Q 2125 384 2398 659 
Q 2672 934 2672 1341 
Q 2672 1728 2419 1979 
Q 2166 2231 1775 2231 
Q 1616 2231 1378 2169 
L 1441 2663 
Q 1497 2656 1531 2656 
Q 1891 2656 2178 2843 
Q 2466 3031 2466 3422 
Q 2466 3731 2256 3934 
Q 2047 4138 1716 4138 
Q 1388 4138 1169 3931 
Q 950 3725 888 3313 
L 325 3413 
Q 428 3978 793 4289 
Q 1159 4600 1703 4600 
Q 2078 4600 2393 4439 
Q 2709 4278 2876 4000 
Q 3044 3722 3044 3409 
Q 3044 3113 2884 2869 
Q 2725 2625 2413 2481 
Q 2819 2388 3044 2092 
Q 3269 1797 3269 1353 
Q 3269 753 2831 336 
Q 2394 -81 1725 -81 
Q 1122 -81 723 278 
Q 325 638 269 1209 
z
" transform="scale(0.015625)"/>
        <path id="ArialMT-2e" d="M 581 0 
L 581 641 
L 1222 641 
L 1222 0 
L 581 0 
z
" transform="scale(0.015625)"/>
        <path id="ArialMT-31" d="M 2384 0 
L 1822 0 
L 1822 3584 
Q 1619 3391 1289 3197 
Q 959 3003 697 2906 
L 697 3450 
Q 1169 3672 1522 3987 
Q 1875 4303 2022 4600 
L 2384 4600 
L 2384 0 
z
" transform="scale(0.015625)"/>
        <path id="ArialMT-28" d="M 1497 -1347 
Q 1031 -759 709 28 
Q 388 816 388 1659 
Q 388 2403 628 3084 
Q 909 3875 1497 4659 
L 1900 4659 
Q 1522 4009 1400 3731 
Q 1209 3300 1100 2831 
Q 966 2247 966 1656 
Q 966 153 1900 -1347 
L 1497 -1347 
z
" transform="scale(0.015625)"/>
        <path id="ArialMT-30" d="M 266 2259 
Q 266 3072 433 3567 
Q 600 4063 929 4331 
Q 1259 4600 1759 4600 
Q 2128 4600 2406 4451 
Q 2684 4303 2865 4023 
Q 3047 3744 3150 3342 
Q 3253 2941 3253 2259 
Q 3253 1453 3087 958 
Q 2922 463 2592 192 
Q 2263 -78 1759 -78 
Q 1097 -78 719 397 
Q 266 969 266 2259 
z
M 844 2259 
Q 844 1131 1108 757 
Q 1372 384 1759 384 
Q 2147 384 2411 759 
Q 2675 1134 2675 2259 
Q 2675 3391 2411 3762 
Q 2147 4134 1753 4134 
Q 1366 4134 1134 3806 
Q 844 3388 844 2259 
z
" transform="scale(0.015625)"/>
        <path id="ArialMT-32" d="M 3222 541 
L 3222 0 
L 194 0 
Q 188 203 259 391 
Q 375 700 629 1000 
Q 884 1300 1366 1694 
Q 2113 2306 2375 2664 
Q 2638 3022 2638 3341 
Q 2638 3675 2398 3904 
Q 2159 4134 1775 4134 
Q 1369 4134 1125 3890 
Q 881 3647 878 3216 
L 300 3275 
Q 359 3922 746 4261 
Q 1134 4600 1788 4600 
Q 2447 4600 2831 4234 
Q 3216 3869 3216 3328 
Q 3216 3053 3103 2787 
Q 2991 2522 2730 2228 
Q 2469 1934 1863 1422 
Q 1356 997 1212 845 
Q 1069 694 975 541 
L 3222 541 
z
" transform="scale(0.015625)"/>
        <path id="ArialMT-25" d="M 372 3481 
Q 372 3972 619 4315 
Q 866 4659 1334 4659 
Q 1766 4659 2048 4351 
Q 2331 4044 2331 3447 
Q 2331 2866 2045 2552 
Q 1759 2238 1341 2238 
Q 925 2238 648 2547 
Q 372 2856 372 3481 
z
M 1350 4272 
Q 1141 4272 1002 4090 
Q 863 3909 863 3425 
Q 863 2984 1003 2804 
Q 1144 2625 1350 2625 
Q 1563 2625 1702 2806 
Q 1841 2988 1841 3469 
Q 1841 3913 1700 4092 
Q 1559 4272 1350 4272 
z
M 1353 -169 
L 3859 4659 
L 4316 4659 
L 1819 -169 
L 1353 -169 
z
M 3334 1075 
Q 3334 1569 3581 1911 
Q 3828 2253 4300 2253 
Q 4731 2253 5014 1945 
Q 5297 1638 5297 1041 
Q 5297 459 5011 145 
Q 4725 -169 4303 -169 
Q 3888 -169 3611 142 
Q 3334 453 3334 1075 
z
M 4316 1866 
Q 4103 1866 3964 1684 
Q 3825 1503 3825 1019 
Q 3825 581 3965 400 
Q 4106 219 4313 219 
Q 4528 219 4667 400 
Q 4806 581 4806 1063 
Q 4806 1506 4665 1686 
Q 4525 1866 4316 1866 
z
" transform="scale(0.015625)"/>
        <path id="ArialMT-29" d="M 791 -1347 
L 388 -1347 
Q 1322 153 1322 1656 
Q 1322 2244 1188 2822 
Q 1081 3291 891 3722 
Q 769 4003 388 4659 
L 791 4659 
Q 1378 3875 1659 3084 
Q 1900 2403 1900 1659 
Q 1900 816 1576 28 
Q 1253 -759 791 -1347 
z
" transform="scale(0.015625)"/>
       </defs>
       <use xlink:href="#ArialMT-6c"/>
       <use xlink:href="#ArialMT-75" x="22.216797"/>
       <use xlink:href="#ArialMT-63" x="77.832031"/>
       <use xlink:href="#ArialMT-65" x="127.832031"/>
       <use xlink:href="#ArialMT-6e" x="183.447266"/>
       <use xlink:href="#ArialMT-65" x="239.0625"/>
       <use xlink:href="#ArialMT-20" x="294.677734"/>
       <use xlink:href="#ArialMT-33" x="322.460938"/>
       <use xlink:href="#ArialMT-2e" x="378.076172"/>
       <use xlink:href="#ArialMT-31" x="405.859375"/>
       <use xlink:href="#ArialMT-20" x="461.474609"/>
       <use xlink:href="#ArialMT-28" x="489.257812"/>
       <use xlink:href="#ArialMT-30" x="522.558594"/>
       <use xlink:href="#ArialMT-2e" x="578.173828"/>
       <use xlink:href="#ArialMT-32" x="605.957031"/>
       <use xlink:href="#ArialMT-25" x="661.572266"/>
       <use xlink:href="#ArialMT-29" x="750.488281"/>
      </g>
     </g>
    </g>
    <g id="xtick_2">
     <g id="line2d_2">
      <path d="M 165.17814 586.703794 
L 165.17814 19.6416 
" clip-path="url(#pb3575ef70c)" style="fill: none; stroke: #cccccc; stroke-width: 0.8; stroke-linecap: round"/>
     </g>
     <g id="text_2">
      <!-- groovy 1_6_BETA_1 (0.5%) -->
      <g style="fill: #262626" transform="translate(58.372313 706.200755) rotate(-45) scale(0.12 -0.12)">
       <defs>
        <path id="ArialMT-67" d="M 319 -275 
L 866 -356 
Q 900 -609 1056 -725 
Q 1266 -881 1628 -881 
Q 2019 -881 2231 -725 
Q 2444 -569 2519 -288 
Q 2563 -116 2559 434 
Q 2191 0 1641 0 
Q 956 0 581 494 
Q 206 988 206 1678 
Q 206 2153 378 2554 
Q 550 2956 876 3175 
Q 1203 3394 1644 3394 
Q 2231 3394 2613 2919 
L 2613 3319 
L 3131 3319 
L 3131 450 
Q 3131 -325 2973 -648 
Q 2816 -972 2473 -1159 
Q 2131 -1347 1631 -1347 
Q 1038 -1347 672 -1080 
Q 306 -813 319 -275 
z
M 784 1719 
Q 784 1066 1043 766 
Q 1303 466 1694 466 
Q 2081 466 2343 764 
Q 2606 1063 2606 1700 
Q 2606 2309 2336 2618 
Q 2066 2928 1684 2928 
Q 1309 2928 1046 2623 
Q 784 2319 784 1719 
z
" transform="scale(0.015625)"/>
        <path id="ArialMT-72" d="M 416 0 
L 416 3319 
L 922 3319 
L 922 2816 
Q 1116 3169 1280 3281 
Q 1444 3394 1641 3394 
Q 1925 3394 2219 3213 
L 2025 2691 
Q 1819 2813 1613 2813 
Q 1428 2813 1281 2702 
Q 1134 2591 1072 2394 
Q 978 2094 978 1738 
L 978 0 
L 416 0 
z
" transform="scale(0.015625)"/>
        <path id="ArialMT-6f" d="M 213 1659 
Q 213 2581 725 3025 
Q 1153 3394 1769 3394 
Q 2453 3394 2887 2945 
Q 3322 2497 3322 1706 
Q 3322 1066 3130 698 
Q 2938 331 2570 128 
Q 2203 -75 1769 -75 
Q 1072 -75 642 372 
Q 213 819 213 1659 
z
M 791 1659 
Q 791 1022 1069 705 
Q 1347 388 1769 388 
Q 2188 388 2466 706 
Q 2744 1025 2744 1678 
Q 2744 2294 2464 2611 
Q 2184 2928 1769 2928 
Q 1347 2928 1069 2612 
Q 791 2297 791 1659 
z
" transform="scale(0.015625)"/>
        <path id="ArialMT-76" d="M 1344 0 
L 81 3319 
L 675 3319 
L 1388 1331 
Q 1503 1009 1600 663 
Q 1675 925 1809 1294 
L 2547 3319 
L 3125 3319 
L 1869 0 
L 1344 0 
z
" transform="scale(0.015625)"/>
        <path id="ArialMT-79" d="M 397 -1278 
L 334 -750 
Q 519 -800 656 -800 
Q 844 -800 956 -737 
Q 1069 -675 1141 -563 
Q 1194 -478 1313 -144 
Q 1328 -97 1363 -6 
L 103 3319 
L 709 3319 
L 1400 1397 
Q 1534 1031 1641 628 
Q 1738 1016 1872 1384 
L 2581 3319 
L 3144 3319 
L 1881 -56 
Q 1678 -603 1566 -809 
Q 1416 -1088 1222 -1217 
Q 1028 -1347 759 -1347 
Q 597 -1347 397 -1278 
z
" transform="scale(0.015625)"/>
        <path id="ArialMT-5f" d="M -97 -1272 
L -97 -866 
L 3631 -866 
L 3631 -1272 
L -97 -1272 
z
" transform="scale(0.015625)"/>
        <path id="ArialMT-36" d="M 3184 3459 
L 2625 3416 
Q 2550 3747 2413 3897 
Q 2184 4138 1850 4138 
Q 1581 4138 1378 3988 
Q 1113 3794 959 3422 
Q 806 3050 800 2363 
Q 1003 2672 1297 2822 
Q 1591 2972 1913 2972 
Q 2475 2972 2870 2558 
Q 3266 2144 3266 1488 
Q 3266 1056 3080 686 
Q 2894 316 2569 119 
Q 2244 -78 1831 -78 
Q 1128 -78 684 439 
Q 241 956 241 2144 
Q 241 3472 731 4075 
Q 1159 4600 1884 4600 
Q 2425 4600 2770 4297 
Q 3116 3994 3184 3459 
z
M 888 1484 
Q 888 1194 1011 928 
Q 1134 663 1356 523 
Q 1578 384 1822 384 
Q 2178 384 2434 671 
Q 2691 959 2691 1453 
Q 2691 1928 2437 2201 
Q 2184 2475 1800 2475 
Q 1419 2475 1153 2201 
Q 888 1928 888 1484 
z
" transform="scale(0.015625)"/>
        <path id="ArialMT-42" d="M 469 0 
L 469 4581 
L 2188 4581 
Q 2713 4581 3030 4442 
Q 3347 4303 3526 4014 
Q 3706 3725 3706 3409 
Q 3706 3116 3547 2856 
Q 3388 2597 3066 2438 
Q 3481 2316 3704 2022 
Q 3928 1728 3928 1328 
Q 3928 1006 3792 729 
Q 3656 453 3456 303 
Q 3256 153 2954 76 
Q 2653 0 2216 0 
L 469 0 
z
M 1075 2656 
L 2066 2656 
Q 2469 2656 2644 2709 
Q 2875 2778 2992 2937 
Q 3109 3097 3109 3338 
Q 3109 3566 3000 3739 
Q 2891 3913 2687 3977 
Q 2484 4041 1991 4041 
L 1075 4041 
L 1075 2656 
z
M 1075 541 
L 2216 541 
Q 2509 541 2628 563 
Q 2838 600 2978 687 
Q 3119 775 3209 942 
Q 3300 1109 3300 1328 
Q 3300 1584 3169 1773 
Q 3038 1963 2805 2039 
Q 2572 2116 2134 2116 
L 1075 2116 
L 1075 541 
z
" transform="scale(0.015625)"/>
        <path id="ArialMT-45" d="M 506 0 
L 506 4581 
L 3819 4581 
L 3819 4041 
L 1113 4041 
L 1113 2638 
L 3647 2638 
L 3647 2100 
L 1113 2100 
L 1113 541 
L 3925 541 
L 3925 0 
L 506 0 
z
" transform="scale(0.015625)"/>
        <path id="ArialMT-54" d="M 1659 0 
L 1659 4041 
L 150 4041 
L 150 4581 
L 3781 4581 
L 3781 4041 
L 2266 4041 
L 2266 0 
L 1659 0 
z
" transform="scale(0.015625)"/>
        <path id="ArialMT-41" d="M -9 0 
L 1750 4581 
L 2403 4581 
L 4278 0 
L 3588 0 
L 3053 1388 
L 1138 1388 
L 634 0 
L -9 0 
z
M 1313 1881 
L 2866 1881 
L 2388 3150 
Q 2169 3728 2063 4100 
Q 1975 3659 1816 3225 
L 1313 1881 
z
" transform="scale(0.015625)"/>
        <path id="ArialMT-35" d="M 266 1200 
L 856 1250 
Q 922 819 1161 601 
Q 1400 384 1738 384 
Q 2144 384 2425 690 
Q 2706 997 2706 1503 
Q 2706 1984 2436 2262 
Q 2166 2541 1728 2541 
Q 1456 2541 1237 2417 
Q 1019 2294 894 2097 
L 366 2166 
L 809 4519 
L 3088 4519 
L 3088 3981 
L 1259 3981 
L 1013 2750 
Q 1425 3038 1878 3038 
Q 2478 3038 2890 2622 
Q 3303 2206 3303 1553 
Q 3303 931 2941 478 
Q 2500 -78 1738 -78 
Q 1113 -78 717 272 
Q 322 622 266 1200 
z
" transform="scale(0.015625)"/>
       </defs>
       <use xlink:href="#ArialMT-67"/>
       <use xlink:href="#ArialMT-72" x="55.615234"/>
       <use xlink:href="#ArialMT-6f" x="88.916016"/>
       <use xlink:href="#ArialMT-6f" x="144.53125"/>
       <use xlink:href="#ArialMT-76" x="200.146484"/>
       <use xlink:href="#ArialMT-79" x="250.146484"/>
       <use xlink:href="#ArialMT-20" x="300.146484"/>
       <use xlink:href="#ArialMT-31" x="327.929688"/>
       <use xlink:href="#ArialMT-5f" x="383.544922"/>
       <use xlink:href="#ArialMT-36" x="439.160156"/>
       <use xlink:href="#ArialMT-5f" x="494.775391"/>
       <use xlink:href="#ArialMT-42" x="550.390625"/>
       <use xlink:href="#ArialMT-45" x="617.089844"/>
       <use xlink:href="#ArialMT-54" x="683.789062"/>
       <use xlink:href="#ArialMT-41" x="737.498047"/>
       <use xlink:href="#ArialMT-5f" x="804.197266"/>
       <use xlink:href="#ArialMT-31" x="859.8125"/>
       <use xlink:href="#ArialMT-20" x="915.427734"/>
       <use xlink:href="#ArialMT-28" x="943.210938"/>
       <use xlink:href="#ArialMT-30" x="976.511719"/>
       <use xlink:href="#ArialMT-2e" x="1032.126953"/>
       <use xlink:href="#ArialMT-35" x="1059.910156"/>
       <use xlink:href="#ArialMT-25" x="1115.525391"/>
       <use xlink:href="#ArialMT-29" x="1204.441406"/>
      </g>
     </g>
    </g>
    <g id="xtick_3">
     <g id="line2d_3">
      <path d="M 206.009826 586.703794 
L 206.009826 19.6416 
" clip-path="url(#pb3575ef70c)" style="fill: none; stroke: #cccccc; stroke-width: 0.8; stroke-linecap: round"/>
     </g>
     <g id="text_3">
      <!-- wicket 1.5.3 (0.5%) -->
      <g style="fill: #262626" transform="translate(132.073858 673.330896) rotate(-45) scale(0.12 -0.12)">
       <defs>
        <path id="ArialMT-77" d="M 1034 0 
L 19 3319 
L 600 3319 
L 1128 1403 
L 1325 691 
Q 1338 744 1497 1375 
L 2025 3319 
L 2603 3319 
L 3100 1394 
L 3266 759 
L 3456 1400 
L 4025 3319 
L 4572 3319 
L 3534 0 
L 2950 0 
L 2422 1988 
L 2294 2553 
L 1622 0 
L 1034 0 
z
" transform="scale(0.015625)"/>
        <path id="ArialMT-69" d="M 425 3934 
L 425 4581 
L 988 4581 
L 988 3934 
L 425 3934 
z
M 425 0 
L 425 3319 
L 988 3319 
L 988 0 
L 425 0 
z
" transform="scale(0.015625)"/>
        <path id="ArialMT-6b" d="M 425 0 
L 425 4581 
L 988 4581 
L 988 1969 
L 2319 3319 
L 3047 3319 
L 1778 2088 
L 3175 0 
L 2481 0 
L 1384 1697 
L 988 1316 
L 988 0 
L 425 0 
z
" transform="scale(0.015625)"/>
        <path id="ArialMT-74" d="M 1650 503 
L 1731 6 
Q 1494 -44 1306 -44 
Q 1000 -44 831 53 
Q 663 150 594 308 
Q 525 466 525 972 
L 525 2881 
L 113 2881 
L 113 3319 
L 525 3319 
L 525 4141 
L 1084 4478 
L 1084 3319 
L 1650 3319 
L 1650 2881 
L 1084 2881 
L 1084 941 
Q 1084 700 1114 631 
Q 1144 563 1211 522 
Q 1278 481 1403 481 
Q 1497 481 1650 503 
z
" transform="scale(0.015625)"/>
       </defs>
       <use xlink:href="#ArialMT-77"/>
       <use xlink:href="#ArialMT-69" x="72.216797"/>
       <use xlink:href="#ArialMT-63" x="94.433594"/>
       <use xlink:href="#ArialMT-6b" x="144.433594"/>
       <use xlink:href="#ArialMT-65" x="194.433594"/>
       <use xlink:href="#ArialMT-74" x="250.048828"/>
       <use xlink:href="#ArialMT-20" x="277.832031"/>
       <use xlink:href="#ArialMT-31" x="305.615234"/>
       <use xlink:href="#ArialMT-2e" x="361.230469"/>
       <use xlink:href="#ArialMT-35" x="389.013672"/>
       <use xlink:href="#ArialMT-2e" x="444.628906"/>
       <use xlink:href="#ArialMT-33" x="472.412109"/>
       <use xlink:href="#ArialMT-20" x="528.027344"/>
       <use xlink:href="#ArialMT-28" x="555.810547"/>
       <use xlink:href="#ArialMT-30" x="589.111328"/>
       <use xlink:href="#ArialMT-2e" x="644.726562"/>
       <use xlink:href="#ArialMT-35" x="672.509766"/>
       <use xlink:href="#ArialMT-25" x="728.125"/>
       <use xlink:href="#ArialMT-29" x="817.041016"/>
      </g>
     </g>
    </g>
    <g id="xtick_4">
     <g id="line2d_4">
      <path d="M 246.841512 586.703794 
L 246.841512 19.6416 
" clip-path="url(#pb3575ef70c)" style="fill: none; stroke: #cccccc; stroke-width: 0.8; stroke-linecap: round"/>
     </g>
     <g id="text_4">
      <!-- jruby 1.7.0.preview1 (1.2%) -->
      <g style="fill: #262626" transform="translate(141.776493 704.459946) rotate(-45) scale(0.12 -0.12)">
       <defs>
        <path id="ArialMT-6a" d="M 419 3928 
L 419 4581 
L 981 4581 
L 981 3928 
L 419 3928 
z
M -294 -1288 
L -188 -809 
Q -19 -853 78 -853 
Q 250 -853 334 -739 
Q 419 -625 419 -169 
L 419 3319 
L 981 3319 
L 981 -181 
Q 981 -794 822 -1034 
Q 619 -1347 147 -1347 
Q -81 -1347 -294 -1288 
z
" transform="scale(0.015625)"/>
        <path id="ArialMT-62" d="M 941 0 
L 419 0 
L 419 4581 
L 981 4581 
L 981 2947 
Q 1338 3394 1891 3394 
Q 2197 3394 2470 3270 
Q 2744 3147 2920 2923 
Q 3097 2700 3197 2384 
Q 3297 2069 3297 1709 
Q 3297 856 2875 390 
Q 2453 -75 1863 -75 
Q 1275 -75 941 416 
L 941 0 
z
M 934 1684 
Q 934 1088 1097 822 
Q 1363 388 1816 388 
Q 2184 388 2453 708 
Q 2722 1028 2722 1663 
Q 2722 2313 2464 2622 
Q 2206 2931 1841 2931 
Q 1472 2931 1203 2611 
Q 934 2291 934 1684 
z
" transform="scale(0.015625)"/>
        <path id="ArialMT-37" d="M 303 3981 
L 303 4522 
L 3269 4522 
L 3269 4084 
Q 2831 3619 2401 2847 
Q 1972 2075 1738 1259 
Q 1569 684 1522 0 
L 944 0 
Q 953 541 1156 1306 
Q 1359 2072 1739 2783 
Q 2119 3494 2547 3981 
L 303 3981 
z
" transform="scale(0.015625)"/>
        <path id="ArialMT-70" d="M 422 -1272 
L 422 3319 
L 934 3319 
L 934 2888 
Q 1116 3141 1344 3267 
Q 1572 3394 1897 3394 
Q 2322 3394 2647 3175 
Q 2972 2956 3137 2557 
Q 3303 2159 3303 1684 
Q 3303 1175 3120 767 
Q 2938 359 2589 142 
Q 2241 -75 1856 -75 
Q 1575 -75 1351 44 
Q 1128 163 984 344 
L 984 -1272 
L 422 -1272 
z
M 931 1641 
Q 931 1000 1190 694 
Q 1450 388 1819 388 
Q 2194 388 2461 705 
Q 2728 1022 2728 1688 
Q 2728 2322 2467 2637 
Q 2206 2953 1844 2953 
Q 1484 2953 1207 2617 
Q 931 2281 931 1641 
z
" transform="scale(0.015625)"/>
       </defs>
       <use xlink:href="#ArialMT-6a"/>
       <use xlink:href="#ArialMT-72" x="22.216797"/>
       <use xlink:href="#ArialMT-75" x="55.517578"/>
       <use xlink:href="#ArialMT-62" x="111.132812"/>
       <use xlink:href="#ArialMT-79" x="166.748047"/>
       <use xlink:href="#ArialMT-20" x="216.748047"/>
       <use xlink:href="#ArialMT-31" x="244.53125"/>
       <use xlink:href="#ArialMT-2e" x="300.146484"/>
       <use xlink:href="#ArialMT-37" x="327.929688"/>
       <use xlink:href="#ArialMT-2e" x="383.544922"/>
       <use xlink:href="#ArialMT-30" x="411.328125"/>
       <use xlink:href="#ArialMT-2e" x="466.943359"/>
       <use xlink:href="#ArialMT-70" x="494.726562"/>
       <use xlink:href="#ArialMT-72" x="550.341797"/>
       <use xlink:href="#ArialMT-65" x="583.642578"/>
       <use xlink:href="#ArialMT-76" x="639.257812"/>
       <use xlink:href="#ArialMT-69" x="689.257812"/>
       <use xlink:href="#ArialMT-65" x="711.474609"/>
       <use xlink:href="#ArialMT-77" x="767.089844"/>
       <use xlink:href="#ArialMT-31" x="839.306641"/>
       <use xlink:href="#ArialMT-20" x="894.921875"/>
       <use xlink:href="#ArialMT-28" x="922.705078"/>
       <use xlink:href="#ArialMT-31" x="956.005859"/>
       <use xlink:href="#ArialMT-2e" x="1011.621094"/>
       <use xlink:href="#ArialMT-32" x="1039.404297"/>
       <use xlink:href="#ArialMT-25" x="1095.019531"/>
       <use xlink:href="#ArialMT-29" x="1183.935547"/>
      </g>
     </g>
    </g>
    <g id="xtick_5">
     <g id="line2d_5">
      <path d="M 287.673198 586.703794 
L 287.673198 19.6416 
" clip-path="url(#pb3575ef70c)" style="fill: none; stroke: #cccccc; stroke-width: 0.8; stroke-linecap: round"/>
     </g>
     <g id="text_5">
      <!-- camel 2.11.0 (1.3%) -->
      <g style="fill: #262626" transform="translate(210.585743 676.482383) rotate(-45) scale(0.12 -0.12)">
       <defs>
        <path id="ArialMT-61" d="M 2588 409 
Q 2275 144 1986 34 
Q 1697 -75 1366 -75 
Q 819 -75 525 192 
Q 231 459 231 875 
Q 231 1119 342 1320 
Q 453 1522 633 1644 
Q 813 1766 1038 1828 
Q 1203 1872 1538 1913 
Q 2219 1994 2541 2106 
Q 2544 2222 2544 2253 
Q 2544 2597 2384 2738 
Q 2169 2928 1744 2928 
Q 1347 2928 1158 2789 
Q 969 2650 878 2297 
L 328 2372 
Q 403 2725 575 2942 
Q 747 3159 1072 3276 
Q 1397 3394 1825 3394 
Q 2250 3394 2515 3294 
Q 2781 3194 2906 3042 
Q 3031 2891 3081 2659 
Q 3109 2516 3109 2141 
L 3109 1391 
Q 3109 606 3145 398 
Q 3181 191 3288 0 
L 2700 0 
Q 2613 175 2588 409 
z
M 2541 1666 
Q 2234 1541 1622 1453 
Q 1275 1403 1131 1340 
Q 988 1278 909 1158 
Q 831 1038 831 891 
Q 831 666 1001 516 
Q 1172 366 1500 366 
Q 1825 366 2078 508 
Q 2331 650 2450 897 
Q 2541 1088 2541 1459 
L 2541 1666 
z
" transform="scale(0.015625)"/>
        <path id="ArialMT-6d" d="M 422 0 
L 422 3319 
L 925 3319 
L 925 2853 
Q 1081 3097 1340 3245 
Q 1600 3394 1931 3394 
Q 2300 3394 2536 3241 
Q 2772 3088 2869 2813 
Q 3263 3394 3894 3394 
Q 4388 3394 4653 3120 
Q 4919 2847 4919 2278 
L 4919 0 
L 4359 0 
L 4359 2091 
Q 4359 2428 4304 2576 
Q 4250 2725 4106 2815 
Q 3963 2906 3769 2906 
Q 3419 2906 3187 2673 
Q 2956 2441 2956 1928 
L 2956 0 
L 2394 0 
L 2394 2156 
Q 2394 2531 2256 2718 
Q 2119 2906 1806 2906 
Q 1569 2906 1367 2781 
Q 1166 2656 1075 2415 
Q 984 2175 984 1722 
L 984 0 
L 422 0 
z
" transform="scale(0.015625)"/>
       </defs>
       <use xlink:href="#ArialMT-63"/>
       <use xlink:href="#ArialMT-61" x="50"/>
       <use xlink:href="#ArialMT-6d" x="105.615234"/>
       <use xlink:href="#ArialMT-65" x="188.916016"/>
       <use xlink:href="#ArialMT-6c" x="244.53125"/>
       <use xlink:href="#ArialMT-20" x="266.748047"/>
       <use xlink:href="#ArialMT-32" x="294.53125"/>
       <use xlink:href="#ArialMT-2e" x="350.146484"/>
       <use xlink:href="#ArialMT-31" x="377.929688"/>
       <use xlink:href="#ArialMT-31" x="426.169922"/>
       <use xlink:href="#ArialMT-2e" x="481.785156"/>
       <use xlink:href="#ArialMT-30" x="509.568359"/>
       <use xlink:href="#ArialMT-20" x="565.183594"/>
       <use xlink:href="#ArialMT-28" x="592.966797"/>
       <use xlink:href="#ArialMT-31" x="626.267578"/>
       <use xlink:href="#ArialMT-2e" x="681.882812"/>
       <use xlink:href="#ArialMT-33" x="709.666016"/>
       <use xlink:href="#ArialMT-25" x="765.28125"/>
       <use xlink:href="#ArialMT-29" x="854.197266"/>
      </g>
     </g>
    </g>
    <g id="xtick_6">
     <g id="line2d_6">
      <path d="M 328.504884 586.703794 
L 328.504884 19.6416 
" clip-path="url(#pb3575ef70c)" style="fill: none; stroke: #cccccc; stroke-width: 0.8; stroke-linecap: round"/>
     </g>
     <g id="text_6">
      <!-- groovy 1_6_BETA_2 (1.5%) -->
      <g style="fill: #262626" transform="translate(221.699057 706.200755) rotate(-45) scale(0.12 -0.12)">
       <use xlink:href="#ArialMT-67"/>
       <use xlink:href="#ArialMT-72" x="55.615234"/>
       <use xlink:href="#ArialMT-6f" x="88.916016"/>
       <use xlink:href="#ArialMT-6f" x="144.53125"/>
       <use xlink:href="#ArialMT-76" x="200.146484"/>
       <use xlink:href="#ArialMT-79" x="250.146484"/>
       <use xlink:href="#ArialMT-20" x="300.146484"/>
       <use xlink:href="#ArialMT-31" x="327.929688"/>
       <use xlink:href="#ArialMT-5f" x="383.544922"/>
       <use xlink:href="#ArialMT-36" x="439.160156"/>
       <use xlink:href="#ArialMT-5f" x="494.775391"/>
       <use xlink:href="#ArialMT-42" x="550.390625"/>
       <use xlink:href="#ArialMT-45" x="617.089844"/>
       <use xlink:href="#ArialMT-54" x="683.789062"/>
       <use xlink:href="#ArialMT-41" x="737.498047"/>
       <use xlink:href="#ArialMT-5f" x="804.197266"/>
       <use xlink:href="#ArialMT-32" x="859.8125"/>
       <use xlink:href="#ArialMT-20" x="915.427734"/>
       <use xlink:href="#ArialMT-28" x="943.210938"/>
       <use xlink:href="#ArialMT-31" x="976.511719"/>
       <use xlink:href="#ArialMT-2e" x="1032.126953"/>
       <use xlink:href="#ArialMT-35" x="1059.910156"/>
       <use xlink:href="#ArialMT-25" x="1115.525391"/>
       <use xlink:href="#ArialMT-29" x="1204.441406"/>
      </g>
     </g>
    </g>
    <g id="xtick_7">
     <g id="line2d_7">
      <path d="M 369.33657 586.703794 
L 369.33657 19.6416 
" clip-path="url(#pb3575ef70c)" style="fill: none; stroke: #cccccc; stroke-width: 0.8; stroke-linecap: round"/>
     </g>
     <g id="text_7">
      <!-- hive 0.12.0 (1.6%) -->
      <g style="fill: #262626" transform="translate(298.6913 670.040198) rotate(-45) scale(0.12 -0.12)">
       <defs>
        <path id="ArialMT-68" d="M 422 0 
L 422 4581 
L 984 4581 
L 984 2938 
Q 1378 3394 1978 3394 
Q 2347 3394 2619 3248 
Q 2891 3103 3008 2847 
Q 3125 2591 3125 2103 
L 3125 0 
L 2563 0 
L 2563 2103 
Q 2563 2525 2380 2717 
Q 2197 2909 1863 2909 
Q 1613 2909 1392 2779 
Q 1172 2650 1078 2428 
Q 984 2206 984 1816 
L 984 0 
L 422 0 
z
" transform="scale(0.015625)"/>
       </defs>
       <use xlink:href="#ArialMT-68"/>
       <use xlink:href="#ArialMT-69" x="55.615234"/>
       <use xlink:href="#ArialMT-76" x="77.832031"/>
       <use xlink:href="#ArialMT-65" x="127.832031"/>
       <use xlink:href="#ArialMT-20" x="183.447266"/>
       <use xlink:href="#ArialMT-30" x="211.230469"/>
       <use xlink:href="#ArialMT-2e" x="266.845703"/>
       <use xlink:href="#ArialMT-31" x="294.628906"/>
       <use xlink:href="#ArialMT-32" x="350.244141"/>
       <use xlink:href="#ArialMT-2e" x="405.859375"/>
       <use xlink:href="#ArialMT-30" x="433.642578"/>
       <use xlink:href="#ArialMT-20" x="489.257812"/>
       <use xlink:href="#ArialMT-28" x="517.041016"/>
       <use xlink:href="#ArialMT-31" x="550.341797"/>
       <use xlink:href="#ArialMT-2e" x="605.957031"/>
       <use xlink:href="#ArialMT-36" x="633.740234"/>
       <use xlink:href="#ArialMT-25" x="689.355469"/>
       <use xlink:href="#ArialMT-29" x="778.271484"/>
      </g>
     </g>
    </g>
    <g id="xtick_8">
     <g id="line2d_8">
      <path d="M 410.168256 586.703794 
L 410.168256 19.6416 
" clip-path="url(#pb3575ef70c)" style="fill: none; stroke: #cccccc; stroke-width: 0.8; stroke-linecap: round"/>
     </g>
     <g id="text_8">
      <!-- camel 2.10.0 (1.9%) -->
      <g style="fill: #262626" transform="translate(332.455011 677.108172) rotate(-45) scale(0.12 -0.12)">
       <defs>
        <path id="ArialMT-39" d="M 350 1059 
L 891 1109 
Q 959 728 1153 556 
Q 1347 384 1650 384 
Q 1909 384 2104 503 
Q 2300 622 2425 820 
Q 2550 1019 2634 1356 
Q 2719 1694 2719 2044 
Q 2719 2081 2716 2156 
Q 2547 1888 2255 1720 
Q 1963 1553 1622 1553 
Q 1053 1553 659 1965 
Q 266 2378 266 3053 
Q 266 3750 677 4175 
Q 1088 4600 1706 4600 
Q 2153 4600 2523 4359 
Q 2894 4119 3086 3673 
Q 3278 3228 3278 2384 
Q 3278 1506 3087 986 
Q 2897 466 2520 194 
Q 2144 -78 1638 -78 
Q 1100 -78 759 220 
Q 419 519 350 1059 
z
M 2653 3081 
Q 2653 3566 2395 3850 
Q 2138 4134 1775 4134 
Q 1400 4134 1122 3828 
Q 844 3522 844 3034 
Q 844 2597 1108 2323 
Q 1372 2050 1759 2050 
Q 2150 2050 2401 2323 
Q 2653 2597 2653 3081 
z
" transform="scale(0.015625)"/>
       </defs>
       <use xlink:href="#ArialMT-63"/>
       <use xlink:href="#ArialMT-61" x="50"/>
       <use xlink:href="#ArialMT-6d" x="105.615234"/>
       <use xlink:href="#ArialMT-65" x="188.916016"/>
       <use xlink:href="#ArialMT-6c" x="244.53125"/>
       <use xlink:href="#ArialMT-20" x="266.748047"/>
       <use xlink:href="#ArialMT-32" x="294.53125"/>
       <use xlink:href="#ArialMT-2e" x="350.146484"/>
       <use xlink:href="#ArialMT-31" x="377.929688"/>
       <use xlink:href="#ArialMT-30" x="433.544922"/>
       <use xlink:href="#ArialMT-2e" x="489.160156"/>
       <use xlink:href="#ArialMT-30" x="516.943359"/>
       <use xlink:href="#ArialMT-20" x="572.558594"/>
       <use xlink:href="#ArialMT-28" x="600.341797"/>
       <use xlink:href="#ArialMT-31" x="633.642578"/>
       <use xlink:href="#ArialMT-2e" x="689.257812"/>
       <use xlink:href="#ArialMT-39" x="717.041016"/>
       <use xlink:href="#ArialMT-25" x="772.65625"/>
       <use xlink:href="#ArialMT-29" x="861.572266"/>
      </g>
     </g>
    </g>
    <g id="xtick_9">
     <g id="line2d_9">
      <path d="M 450.999942 586.703794 
L 450.999942 19.6416 
" clip-path="url(#pb3575ef70c)" style="fill: none; stroke: #cccccc; stroke-width: 0.8; stroke-linecap: round"/>
     </g>
     <g id="text_9">
      <!-- wicket 1.3.0-beta2 (2.1%) -->
      <g style="fill: #262626" transform="translate(353.006875 697.387995) rotate(-45) scale(0.12 -0.12)">
       <defs>
        <path id="ArialMT-2d" d="M 203 1375 
L 203 1941 
L 1931 1941 
L 1931 1375 
L 203 1375 
z
" transform="scale(0.015625)"/>
       </defs>
       <use xlink:href="#ArialMT-77"/>
       <use xlink:href="#ArialMT-69" x="72.216797"/>
       <use xlink:href="#ArialMT-63" x="94.433594"/>
       <use xlink:href="#ArialMT-6b" x="144.433594"/>
       <use xlink:href="#ArialMT-65" x="194.433594"/>
       <use xlink:href="#ArialMT-74" x="250.048828"/>
       <use xlink:href="#ArialMT-20" x="277.832031"/>
       <use xlink:href="#ArialMT-31" x="305.615234"/>
       <use xlink:href="#ArialMT-2e" x="361.230469"/>
       <use xlink:href="#ArialMT-33" x="389.013672"/>
       <use xlink:href="#ArialMT-2e" x="444.628906"/>
       <use xlink:href="#ArialMT-30" x="472.412109"/>
       <use xlink:href="#ArialMT-2d" x="528.027344"/>
       <use xlink:href="#ArialMT-62" x="561.328125"/>
       <use xlink:href="#ArialMT-65" x="616.943359"/>
       <use xlink:href="#ArialMT-74" x="672.558594"/>
       <use xlink:href="#ArialMT-61" x="700.341797"/>
       <use xlink:href="#ArialMT-32" x="755.957031"/>
       <use xlink:href="#ArialMT-20" x="811.572266"/>
       <use xlink:href="#ArialMT-28" x="839.355469"/>
       <use xlink:href="#ArialMT-32" x="872.65625"/>
       <use xlink:href="#ArialMT-2e" x="928.271484"/>
       <use xlink:href="#ArialMT-31" x="956.054688"/>
       <use xlink:href="#ArialMT-25" x="1011.669922"/>
       <use xlink:href="#ArialMT-29" x="1100.585938"/>
      </g>
     </g>
    </g>
    <g id="xtick_10">
     <g id="line2d_10">
      <path d="M 491.831628 586.703794 
L 491.831628 19.6416 
" clip-path="url(#pb3575ef70c)" style="fill: none; stroke: #cccccc; stroke-width: 0.8; stroke-linecap: round"/>
     </g>
     <g id="text_10">
      <!-- activemq 5.2.0 (2.2%) -->
      <g style="fill: #262626" transform="translate(407.518425 683.70813) rotate(-45) scale(0.12 -0.12)">
       <defs>
        <path id="ArialMT-71" d="M 2538 -1272 
L 2538 353 
Q 2406 169 2170 47 
Q 1934 -75 1669 -75 
Q 1078 -75 651 397 
Q 225 869 225 1691 
Q 225 2191 398 2587 
Q 572 2984 901 3189 
Q 1231 3394 1625 3394 
Q 2241 3394 2594 2875 
L 2594 3319 
L 3100 3319 
L 3100 -1272 
L 2538 -1272 
z
M 803 1669 
Q 803 1028 1072 708 
Q 1341 388 1716 388 
Q 2075 388 2334 692 
Q 2594 997 2594 1619 
Q 2594 2281 2320 2615 
Q 2047 2950 1678 2950 
Q 1313 2950 1058 2639 
Q 803 2328 803 1669 
z
" transform="scale(0.015625)"/>
       </defs>
       <use xlink:href="#ArialMT-61"/>
       <use xlink:href="#ArialMT-63" x="55.615234"/>
       <use xlink:href="#ArialMT-74" x="105.615234"/>
       <use xlink:href="#ArialMT-69" x="133.398438"/>
       <use xlink:href="#ArialMT-76" x="155.615234"/>
       <use xlink:href="#ArialMT-65" x="205.615234"/>
       <use xlink:href="#ArialMT-6d" x="261.230469"/>
       <use xlink:href="#ArialMT-71" x="344.53125"/>
       <use xlink:href="#ArialMT-20" x="400.146484"/>
       <use xlink:href="#ArialMT-35" x="427.929688"/>
       <use xlink:href="#ArialMT-2e" x="483.544922"/>
       <use xlink:href="#ArialMT-32" x="511.328125"/>
       <use xlink:href="#ArialMT-2e" x="566.943359"/>
       <use xlink:href="#ArialMT-30" x="594.726562"/>
       <use xlink:href="#ArialMT-20" x="650.341797"/>
       <use xlink:href="#ArialMT-28" x="678.125"/>
       <use xlink:href="#ArialMT-32" x="711.425781"/>
       <use xlink:href="#ArialMT-2e" x="767.041016"/>
       <use xlink:href="#ArialMT-32" x="794.824219"/>
       <use xlink:href="#ArialMT-25" x="850.439453"/>
       <use xlink:href="#ArialMT-29" x="939.355469"/>
      </g>
     </g>
    </g>
    <g id="xtick_11">
     <g id="line2d_11">
      <path d="M 532.663314 586.703794 
L 532.663314 19.6416 
" clip-path="url(#pb3575ef70c)" style="fill: none; stroke: #cccccc; stroke-width: 0.8; stroke-linecap: round"/>
     </g>
     <g id="text_11">
      <!-- jruby 1.4.0 (2.2%) -->
      <g style="fill: #262626" transform="translate(463.911322 668.14692) rotate(-45) scale(0.12 -0.12)">
       <defs>
        <path id="ArialMT-34" d="M 2069 0 
L 2069 1097 
L 81 1097 
L 81 1613 
L 2172 4581 
L 2631 4581 
L 2631 1613 
L 3250 1613 
L 3250 1097 
L 2631 1097 
L 2631 0 
L 2069 0 
z
M 2069 1613 
L 2069 3678 
L 634 1613 
L 2069 1613 
z
" transform="scale(0.015625)"/>
       </defs>
       <use xlink:href="#ArialMT-6a"/>
       <use xlink:href="#ArialMT-72" x="22.216797"/>
       <use xlink:href="#ArialMT-75" x="55.517578"/>
       <use xlink:href="#ArialMT-62" x="111.132812"/>
       <use xlink:href="#ArialMT-79" x="166.748047"/>
       <use xlink:href="#ArialMT-20" x="216.748047"/>
       <use xlink:href="#ArialMT-31" x="244.53125"/>
       <use xlink:href="#ArialMT-2e" x="300.146484"/>
       <use xlink:href="#ArialMT-34" x="327.929688"/>
       <use xlink:href="#ArialMT-2e" x="383.544922"/>
       <use xlink:href="#ArialMT-30" x="411.328125"/>
       <use xlink:href="#ArialMT-20" x="466.943359"/>
       <use xlink:href="#ArialMT-28" x="494.726562"/>
       <use xlink:href="#ArialMT-32" x="528.027344"/>
       <use xlink:href="#ArialMT-2e" x="583.642578"/>
       <use xlink:href="#ArialMT-32" x="611.425781"/>
       <use xlink:href="#ArialMT-25" x="667.041016"/>
       <use xlink:href="#ArialMT-29" x="755.957031"/>
      </g>
     </g>
    </g>
    <g id="xtick_12">
     <g id="line2d_12">
      <path d="M 573.495 586.703794 
L 573.495 19.6416 
" clip-path="url(#pb3575ef70c)" style="fill: none; stroke: #cccccc; stroke-width: 0.8; stroke-linecap: round"/>
     </g>
     <g id="text_12">
      <!-- camel 2.9.0 (2.3%) -->
      <g style="fill: #262626" transform="translate(500.500367 672.38956) rotate(-45) scale(0.12 -0.12)">
       <use xlink:href="#ArialMT-63"/>
       <use xlink:href="#ArialMT-61" x="50"/>
       <use xlink:href="#ArialMT-6d" x="105.615234"/>
       <use xlink:href="#ArialMT-65" x="188.916016"/>
       <use xlink:href="#ArialMT-6c" x="244.53125"/>
       <use xlink:href="#ArialMT-20" x="266.748047"/>
       <use xlink:href="#ArialMT-32" x="294.53125"/>
       <use xlink:href="#ArialMT-2e" x="350.146484"/>
       <use xlink:href="#ArialMT-39" x="377.929688"/>
       <use xlink:href="#ArialMT-2e" x="433.544922"/>
       <use xlink:href="#ArialMT-30" x="461.328125"/>
       <use xlink:href="#ArialMT-20" x="516.943359"/>
       <use xlink:href="#ArialMT-28" x="544.726562"/>
       <use xlink:href="#ArialMT-32" x="578.027344"/>
       <use xlink:href="#ArialMT-2e" x="633.642578"/>
       <use xlink:href="#ArialMT-33" x="661.425781"/>
       <use xlink:href="#ArialMT-25" x="717.041016"/>
       <use xlink:href="#ArialMT-29" x="805.957031"/>
      </g>
     </g>
    </g>
    <g id="xtick_13">
     <g id="line2d_13">
      <path d="M 614.326686 586.703794 
L 614.326686 19.6416 
" clip-path="url(#pb3575ef70c)" style="fill: none; stroke: #cccccc; stroke-width: 0.8; stroke-linecap: round"/>
     </g>
     <g id="text_13">
      <!-- jruby 1.5.0 (2.7%) -->
      <g style="fill: #262626" transform="translate(545.574694 668.14692) rotate(-45) scale(0.12 -0.12)">
       <use xlink:href="#ArialMT-6a"/>
       <use xlink:href="#ArialMT-72" x="22.216797"/>
       <use xlink:href="#ArialMT-75" x="55.517578"/>
       <use xlink:href="#ArialMT-62" x="111.132812"/>
       <use xlink:href="#ArialMT-79" x="166.748047"/>
       <use xlink:href="#ArialMT-20" x="216.748047"/>
       <use xlink:href="#ArialMT-31" x="244.53125"/>
       <use xlink:href="#ArialMT-2e" x="300.146484"/>
       <use xlink:href="#ArialMT-35" x="327.929688"/>
       <use xlink:href="#ArialMT-2e" x="383.544922"/>
       <use xlink:href="#ArialMT-30" x="411.328125"/>
       <use xlink:href="#ArialMT-20" x="466.943359"/>
       <use xlink:href="#ArialMT-28" x="494.726562"/>
       <use xlink:href="#ArialMT-32" x="528.027344"/>
       <use xlink:href="#ArialMT-2e" x="583.642578"/>
       <use xlink:href="#ArialMT-37" x="611.425781"/>
       <use xlink:href="#ArialMT-25" x="667.041016"/>
       <use xlink:href="#ArialMT-29" x="755.957031"/>
      </g>
     </g>
    </g>
    <g id="xtick_14">
     <g id="line2d_14">
      <path d="M 655.158372 586.703794 
L 655.158372 19.6416 
" clip-path="url(#pb3575ef70c)" style="fill: none; stroke: #cccccc; stroke-width: 0.8; stroke-linecap: round"/>
     </g>
     <g id="text_14">
      <!-- activemq 5.1.0 (2.8%) -->
      <g style="fill: #262626" transform="translate(570.845169 683.70813) rotate(-45) scale(0.12 -0.12)">
       <defs>
        <path id="ArialMT-38" d="M 1131 2484 
Q 781 2613 612 2850 
Q 444 3088 444 3419 
Q 444 3919 803 4259 
Q 1163 4600 1759 4600 
Q 2359 4600 2725 4251 
Q 3091 3903 3091 3403 
Q 3091 3084 2923 2848 
Q 2756 2613 2416 2484 
Q 2838 2347 3058 2040 
Q 3278 1734 3278 1309 
Q 3278 722 2862 322 
Q 2447 -78 1769 -78 
Q 1091 -78 675 323 
Q 259 725 259 1325 
Q 259 1772 486 2073 
Q 713 2375 1131 2484 
z
M 1019 3438 
Q 1019 3113 1228 2906 
Q 1438 2700 1772 2700 
Q 2097 2700 2305 2904 
Q 2513 3109 2513 3406 
Q 2513 3716 2298 3927 
Q 2084 4138 1766 4138 
Q 1444 4138 1231 3931 
Q 1019 3725 1019 3438 
z
M 838 1322 
Q 838 1081 952 856 
Q 1066 631 1291 507 
Q 1516 384 1775 384 
Q 2178 384 2440 643 
Q 2703 903 2703 1303 
Q 2703 1709 2433 1975 
Q 2163 2241 1756 2241 
Q 1359 2241 1098 1978 
Q 838 1716 838 1322 
z
" transform="scale(0.015625)"/>
       </defs>
       <use xlink:href="#ArialMT-61"/>
       <use xlink:href="#ArialMT-63" x="55.615234"/>
       <use xlink:href="#ArialMT-74" x="105.615234"/>
       <use xlink:href="#ArialMT-69" x="133.398438"/>
       <use xlink:href="#ArialMT-76" x="155.615234"/>
       <use xlink:href="#ArialMT-65" x="205.615234"/>
       <use xlink:href="#ArialMT-6d" x="261.230469"/>
       <use xlink:href="#ArialMT-71" x="344.53125"/>
       <use xlink:href="#ArialMT-20" x="400.146484"/>
       <use xlink:href="#ArialMT-35" x="427.929688"/>
       <use xlink:href="#ArialMT-2e" x="483.544922"/>
       <use xlink:href="#ArialMT-31" x="511.328125"/>
       <use xlink:href="#ArialMT-2e" x="566.943359"/>
       <use xlink:href="#ArialMT-30" x="594.726562"/>
       <use xlink:href="#ArialMT-20" x="650.341797"/>
       <use xlink:href="#ArialMT-28" x="678.125"/>
       <use xlink:href="#ArialMT-32" x="711.425781"/>
       <use xlink:href="#ArialMT-2e" x="767.041016"/>
       <use xlink:href="#ArialMT-38" x="794.824219"/>
       <use xlink:href="#ArialMT-25" x="850.439453"/>
       <use xlink:href="#ArialMT-29" x="939.355469"/>
      </g>
     </g>
    </g>
    <g id="xtick_15">
     <g id="line2d_15">
      <path d="M 695.990058 586.703794 
L 695.990058 19.6416 
" clip-path="url(#pb3575ef70c)" style="fill: none; stroke: #cccccc; stroke-width: 0.8; stroke-linecap: round"/>
     </g>
     <g id="text_15">
      <!-- activemq 5.3.0 (4.1%) -->
      <g style="fill: #262626" transform="translate(611.676855 683.70813) rotate(-45) scale(0.12 -0.12)">
       <use xlink:href="#ArialMT-61"/>
       <use xlink:href="#ArialMT-63" x="55.615234"/>
       <use xlink:href="#ArialMT-74" x="105.615234"/>
       <use xlink:href="#ArialMT-69" x="133.398438"/>
       <use xlink:href="#ArialMT-76" x="155.615234"/>
       <use xlink:href="#ArialMT-65" x="205.615234"/>
       <use xlink:href="#ArialMT-6d" x="261.230469"/>
       <use xlink:href="#ArialMT-71" x="344.53125"/>
       <use xlink:href="#ArialMT-20" x="400.146484"/>
       <use xlink:href="#ArialMT-35" x="427.929688"/>
       <use xlink:href="#ArialMT-2e" x="483.544922"/>
       <use xlink:href="#ArialMT-33" x="511.328125"/>
       <use xlink:href="#ArialMT-2e" x="566.943359"/>
       <use xlink:href="#ArialMT-30" x="594.726562"/>
       <use xlink:href="#ArialMT-20" x="650.341797"/>
       <use xlink:href="#ArialMT-28" x="678.125"/>
       <use xlink:href="#ArialMT-34" x="711.425781"/>
       <use xlink:href="#ArialMT-2e" x="767.041016"/>
       <use xlink:href="#ArialMT-31" x="794.824219"/>
       <use xlink:href="#ArialMT-25" x="850.439453"/>
       <use xlink:href="#ArialMT-29" x="939.355469"/>
      </g>
     </g>
    </g>
    <g id="xtick_16">
     <g id="line2d_16">
      <path d="M 736.821744 586.703794 
L 736.821744 19.6416 
" clip-path="url(#pb3575ef70c)" style="fill: none; stroke: #cccccc; stroke-width: 0.8; stroke-linecap: round"/>
     </g>
     <g id="text_16">
      <!-- hive 0.10.0 (4.7%) -->
      <g style="fill: #262626" transform="translate(666.176473 670.040198) rotate(-45) scale(0.12 -0.12)">
       <use xlink:href="#ArialMT-68"/>
       <use xlink:href="#ArialMT-69" x="55.615234"/>
       <use xlink:href="#ArialMT-76" x="77.832031"/>
       <use xlink:href="#ArialMT-65" x="127.832031"/>
       <use xlink:href="#ArialMT-20" x="183.447266"/>
       <use xlink:href="#ArialMT-30" x="211.230469"/>
       <use xlink:href="#ArialMT-2e" x="266.845703"/>
       <use xlink:href="#ArialMT-31" x="294.628906"/>
       <use xlink:href="#ArialMT-30" x="350.244141"/>
       <use xlink:href="#ArialMT-2e" x="405.859375"/>
       <use xlink:href="#ArialMT-30" x="433.642578"/>
       <use xlink:href="#ArialMT-20" x="489.257812"/>
       <use xlink:href="#ArialMT-28" x="517.041016"/>
       <use xlink:href="#ArialMT-34" x="550.341797"/>
       <use xlink:href="#ArialMT-2e" x="605.957031"/>
       <use xlink:href="#ArialMT-37" x="633.740234"/>
       <use xlink:href="#ArialMT-25" x="689.355469"/>
       <use xlink:href="#ArialMT-29" x="778.271484"/>
      </g>
     </g>
    </g>
    <g id="xtick_17">
     <g id="line2d_17">
      <path d="M 777.65343 586.703794 
L 777.65343 19.6416 
" clip-path="url(#pb3575ef70c)" style="fill: none; stroke: #cccccc; stroke-width: 0.8; stroke-linecap: round"/>
     </g>
     <g id="text_17">
      <!-- activemq 5.8.0 (4.8%) -->
      <g style="fill: #262626" transform="translate(693.340227 683.70813) rotate(-45) scale(0.12 -0.12)">
       <use xlink:href="#ArialMT-61"/>
       <use xlink:href="#ArialMT-63" x="55.615234"/>
       <use xlink:href="#ArialMT-74" x="105.615234"/>
       <use xlink:href="#ArialMT-69" x="133.398438"/>
       <use xlink:href="#ArialMT-76" x="155.615234"/>
       <use xlink:href="#ArialMT-65" x="205.615234"/>
       <use xlink:href="#ArialMT-6d" x="261.230469"/>
       <use xlink:href="#ArialMT-71" x="344.53125"/>
       <use xlink:href="#ArialMT-20" x="400.146484"/>
       <use xlink:href="#ArialMT-35" x="427.929688"/>
       <use xlink:href="#ArialMT-2e" x="483.544922"/>
       <use xlink:href="#ArialMT-38" x="511.328125"/>
       <use xlink:href="#ArialMT-2e" x="566.943359"/>
       <use xlink:href="#ArialMT-30" x="594.726562"/>
       <use xlink:href="#ArialMT-20" x="650.341797"/>
       <use xlink:href="#ArialMT-28" x="678.125"/>
       <use xlink:href="#ArialMT-34" x="711.425781"/>
       <use xlink:href="#ArialMT-2e" x="767.041016"/>
       <use xlink:href="#ArialMT-38" x="794.824219"/>
       <use xlink:href="#ArialMT-25" x="850.439453"/>
       <use xlink:href="#ArialMT-29" x="939.355469"/>
      </g>
     </g>
    </g>
    <g id="xtick_18">
     <g id="line2d_18">
      <path d="M 818.485116 586.703794 
L 818.485116 19.6416 
" clip-path="url(#pb3575ef70c)" style="fill: none; stroke: #cccccc; stroke-width: 0.8; stroke-linecap: round"/>
     </g>
     <g id="text_18">
      <!-- hbase 0.95.0 (6.4%) -->
      <g style="fill: #262626" transform="translate(740.287945 677.592098) rotate(-45) scale(0.12 -0.12)">
       <defs>
        <path id="ArialMT-73" d="M 197 991 
L 753 1078 
Q 800 744 1014 566 
Q 1228 388 1613 388 
Q 2000 388 2187 545 
Q 2375 703 2375 916 
Q 2375 1106 2209 1216 
Q 2094 1291 1634 1406 
Q 1016 1563 777 1677 
Q 538 1791 414 1992 
Q 291 2194 291 2438 
Q 291 2659 392 2848 
Q 494 3038 669 3163 
Q 800 3259 1026 3326 
Q 1253 3394 1513 3394 
Q 1903 3394 2198 3281 
Q 2494 3169 2634 2976 
Q 2775 2784 2828 2463 
L 2278 2388 
Q 2241 2644 2061 2787 
Q 1881 2931 1553 2931 
Q 1166 2931 1000 2803 
Q 834 2675 834 2503 
Q 834 2394 903 2306 
Q 972 2216 1119 2156 
Q 1203 2125 1616 2013 
Q 2213 1853 2448 1751 
Q 2684 1650 2818 1456 
Q 2953 1263 2953 975 
Q 2953 694 2789 445 
Q 2625 197 2315 61 
Q 2006 -75 1616 -75 
Q 969 -75 630 194 
Q 291 463 197 991 
z
" transform="scale(0.015625)"/>
       </defs>
       <use xlink:href="#ArialMT-68"/>
       <use xlink:href="#ArialMT-62" x="55.615234"/>
       <use xlink:href="#ArialMT-61" x="111.230469"/>
       <use xlink:href="#ArialMT-73" x="166.845703"/>
       <use xlink:href="#ArialMT-65" x="216.845703"/>
       <use xlink:href="#ArialMT-20" x="272.460938"/>
       <use xlink:href="#ArialMT-30" x="300.244141"/>
       <use xlink:href="#ArialMT-2e" x="355.859375"/>
       <use xlink:href="#ArialMT-39" x="383.642578"/>
       <use xlink:href="#ArialMT-35" x="439.257812"/>
       <use xlink:href="#ArialMT-2e" x="494.873047"/>
       <use xlink:href="#ArialMT-30" x="522.65625"/>
       <use xlink:href="#ArialMT-20" x="578.271484"/>
       <use xlink:href="#ArialMT-28" x="606.054688"/>
       <use xlink:href="#ArialMT-36" x="639.355469"/>
       <use xlink:href="#ArialMT-2e" x="694.970703"/>
       <use xlink:href="#ArialMT-34" x="722.753906"/>
       <use xlink:href="#ArialMT-25" x="778.369141"/>
       <use xlink:href="#ArialMT-29" x="867.285156"/>
      </g>
     </g>
    </g>
    <g id="xtick_19">
     <g id="line2d_19">
      <path d="M 859.316802 586.703794 
L 859.316802 19.6416 
" clip-path="url(#pb3575ef70c)" style="fill: none; stroke: #cccccc; stroke-width: 0.8; stroke-linecap: round"/>
     </g>
     <g id="text_19">
      <!-- lucene 3.0.0 (6.5%) -->
      <g style="fill: #262626" transform="translate(783.952919 674.75881) rotate(-45) scale(0.12 -0.12)">
       <use xlink:href="#ArialMT-6c"/>
       <use xlink:href="#ArialMT-75" x="22.216797"/>
       <use xlink:href="#ArialMT-63" x="77.832031"/>
       <use xlink:href="#ArialMT-65" x="127.832031"/>
       <use xlink:href="#ArialMT-6e" x="183.447266"/>
       <use xlink:href="#ArialMT-65" x="239.0625"/>
       <use xlink:href="#ArialMT-20" x="294.677734"/>
       <use xlink:href="#ArialMT-33" x="322.460938"/>
       <use xlink:href="#ArialMT-2e" x="378.076172"/>
       <use xlink:href="#ArialMT-30" x="405.859375"/>
       <use xlink:href="#ArialMT-2e" x="461.474609"/>
       <use xlink:href="#ArialMT-30" x="489.257812"/>
       <use xlink:href="#ArialMT-20" x="544.873047"/>
       <use xlink:href="#ArialMT-28" x="572.65625"/>
       <use xlink:href="#ArialMT-36" x="605.957031"/>
       <use xlink:href="#ArialMT-2e" x="661.572266"/>
       <use xlink:href="#ArialMT-35" x="689.355469"/>
       <use xlink:href="#ArialMT-25" x="744.970703"/>
       <use xlink:href="#ArialMT-29" x="833.886719"/>
      </g>
     </g>
    </g>
    <g id="xtick_20">
     <g id="line2d_20">
      <path d="M 900.148488 586.703794 
L 900.148488 19.6416 
" clip-path="url(#pb3575ef70c)" style="fill: none; stroke: #cccccc; stroke-width: 0.8; stroke-linecap: round"/>
     </g>
     <g id="text_20">
      <!-- lucene 2.9.0 (7.8%) -->
      <g style="fill: #262626" transform="translate(824.784605 674.75881) rotate(-45) scale(0.12 -0.12)">
       <use xlink:href="#ArialMT-6c"/>
       <use xlink:href="#ArialMT-75" x="22.216797"/>
       <use xlink:href="#ArialMT-63" x="77.832031"/>
       <use xlink:href="#ArialMT-65" x="127.832031"/>
       <use xlink:href="#ArialMT-6e" x="183.447266"/>
       <use xlink:href="#ArialMT-65" x="239.0625"/>
       <use xlink:href="#ArialMT-20" x="294.677734"/>
       <use xlink:href="#ArialMT-32" x="322.460938"/>
       <use xlink:href="#ArialMT-2e" x="378.076172"/>
       <use xlink:href="#ArialMT-39" x="405.859375"/>
       <use xlink:href="#ArialMT-2e" x="461.474609"/>
       <use xlink:href="#ArialMT-30" x="489.257812"/>
       <use xlink:href="#ArialMT-20" x="544.873047"/>
       <use xlink:href="#ArialMT-28" x="572.65625"/>
       <use xlink:href="#ArialMT-37" x="605.957031"/>
       <use xlink:href="#ArialMT-2e" x="661.572266"/>
       <use xlink:href="#ArialMT-38" x="689.355469"/>
       <use xlink:href="#ArialMT-25" x="744.970703"/>
       <use xlink:href="#ArialMT-29" x="833.886719"/>
      </g>
     </g>
    </g>
    <g id="xtick_21">
     <g id="line2d_21">
      <path d="M 940.980174 586.703794 
L 940.980174 19.6416 
" clip-path="url(#pb3575ef70c)" style="fill: none; stroke: #cccccc; stroke-width: 0.8; stroke-linecap: round"/>
     </g>
     <g id="text_21">
      <!-- hbase 0.95.2 (9.0%) -->
      <g style="fill: #262626" transform="translate(862.783002 677.592098) rotate(-45) scale(0.12 -0.12)">
       <use xlink:href="#ArialMT-68"/>
       <use xlink:href="#ArialMT-62" x="55.615234"/>
       <use xlink:href="#ArialMT-61" x="111.230469"/>
       <use xlink:href="#ArialMT-73" x="166.845703"/>
       <use xlink:href="#ArialMT-65" x="216.845703"/>
       <use xlink:href="#ArialMT-20" x="272.460938"/>
       <use xlink:href="#ArialMT-30" x="300.244141"/>
       <use xlink:href="#ArialMT-2e" x="355.859375"/>
       <use xlink:href="#ArialMT-39" x="383.642578"/>
       <use xlink:href="#ArialMT-35" x="439.257812"/>
       <use xlink:href="#ArialMT-2e" x="494.873047"/>
       <use xlink:href="#ArialMT-32" x="522.65625"/>
       <use xlink:href="#ArialMT-20" x="578.271484"/>
       <use xlink:href="#ArialMT-28" x="606.054688"/>
       <use xlink:href="#ArialMT-39" x="639.355469"/>
       <use xlink:href="#ArialMT-2e" x="694.970703"/>
       <use xlink:href="#ArialMT-30" x="722.753906"/>
       <use xlink:href="#ArialMT-25" x="778.369141"/>
       <use xlink:href="#ArialMT-29" x="867.285156"/>
      </g>
     </g>
    </g>
    <g id="xtick_22">
     <g id="line2d_22">
      <path d="M 981.81186 586.703794 
L 981.81186 19.6416 
" clip-path="url(#pb3575ef70c)" style="fill: none; stroke: #cccccc; stroke-width: 0.8; stroke-linecap: round"/>
     </g>
     <g id="text_22">
      <!-- derby 10.5.1.1 (9.9%) -->
      <g style="fill: #262626" transform="translate(898.432038 682.774749) rotate(-45) scale(0.12 -0.12)">
       <defs>
        <path id="ArialMT-64" d="M 2575 0 
L 2575 419 
Q 2259 -75 1647 -75 
Q 1250 -75 917 144 
Q 584 363 401 755 
Q 219 1147 219 1656 
Q 219 2153 384 2558 
Q 550 2963 881 3178 
Q 1213 3394 1622 3394 
Q 1922 3394 2156 3267 
Q 2391 3141 2538 2938 
L 2538 4581 
L 3097 4581 
L 3097 0 
L 2575 0 
z
M 797 1656 
Q 797 1019 1065 703 
Q 1334 388 1700 388 
Q 2069 388 2326 689 
Q 2584 991 2584 1609 
Q 2584 2291 2321 2609 
Q 2059 2928 1675 2928 
Q 1300 2928 1048 2622 
Q 797 2316 797 1656 
z
" transform="scale(0.015625)"/>
       </defs>
       <use xlink:href="#ArialMT-64"/>
       <use xlink:href="#ArialMT-65" x="55.615234"/>
       <use xlink:href="#ArialMT-72" x="111.230469"/>
       <use xlink:href="#ArialMT-62" x="144.53125"/>
       <use xlink:href="#ArialMT-79" x="200.146484"/>
       <use xlink:href="#ArialMT-20" x="250.146484"/>
       <use xlink:href="#ArialMT-31" x="277.929688"/>
       <use xlink:href="#ArialMT-30" x="333.544922"/>
       <use xlink:href="#ArialMT-2e" x="389.160156"/>
       <use xlink:href="#ArialMT-35" x="416.943359"/>
       <use xlink:href="#ArialMT-2e" x="472.558594"/>
       <use xlink:href="#ArialMT-31" x="500.341797"/>
       <use xlink:href="#ArialMT-2e" x="555.957031"/>
       <use xlink:href="#ArialMT-31" x="583.740234"/>
       <use xlink:href="#ArialMT-20" x="639.355469"/>
       <use xlink:href="#ArialMT-28" x="667.138672"/>
       <use xlink:href="#ArialMT-39" x="700.439453"/>
       <use xlink:href="#ArialMT-2e" x="756.054688"/>
       <use xlink:href="#ArialMT-39" x="783.837891"/>
       <use xlink:href="#ArialMT-25" x="839.453125"/>
       <use xlink:href="#ArialMT-29" x="928.369141"/>
      </g>
     </g>
    </g>
    <g id="xtick_23">
     <g id="line2d_23">
      <path d="M 1022.643545 586.703794 
L 1022.643545 19.6416 
" clip-path="url(#pb3575ef70c)" style="fill: none; stroke: #cccccc; stroke-width: 0.8; stroke-linecap: round"/>
     </g>
     <g id="text_23">
      <!-- derby 10.3.1.4 (23.9%) -->
      <g style="fill: #262626" transform="translate(934.545112 687.493361) rotate(-45) scale(0.12 -0.12)">
       <use xlink:href="#ArialMT-64"/>
       <use xlink:href="#ArialMT-65" x="55.615234"/>
       <use xlink:href="#ArialMT-72" x="111.230469"/>
       <use xlink:href="#ArialMT-62" x="144.53125"/>
       <use xlink:href="#ArialMT-79" x="200.146484"/>
       <use xlink:href="#ArialMT-20" x="250.146484"/>
       <use xlink:href="#ArialMT-31" x="277.929688"/>
       <use xlink:href="#ArialMT-30" x="333.544922"/>
       <use xlink:href="#ArialMT-2e" x="389.160156"/>
       <use xlink:href="#ArialMT-33" x="416.943359"/>
       <use xlink:href="#ArialMT-2e" x="472.558594"/>
       <use xlink:href="#ArialMT-31" x="500.341797"/>
       <use xlink:href="#ArialMT-2e" x="555.957031"/>
       <use xlink:href="#ArialMT-34" x="583.740234"/>
       <use xlink:href="#ArialMT-20" x="639.355469"/>
       <use xlink:href="#ArialMT-28" x="667.138672"/>
       <use xlink:href="#ArialMT-32" x="700.439453"/>
       <use xlink:href="#ArialMT-33" x="756.054688"/>
       <use xlink:href="#ArialMT-2e" x="811.669922"/>
       <use xlink:href="#ArialMT-39" x="839.453125"/>
       <use xlink:href="#ArialMT-25" x="895.068359"/>
       <use xlink:href="#ArialMT-29" x="983.984375"/>
      </g>
     </g>
    </g>
   </g>
   <g id="matplotlib.axis_2">
    <g id="ytick_1">
     <g id="line2d_24">
      <path d="M 79.4316 586.703794 
L 1067.5584 586.703794 
" clip-path="url(#pb3575ef70c)" style="fill: none; stroke: #cccccc; stroke-width: 0.8; stroke-linecap: round"/>
     </g>
     <g id="text_24">
      <!-- 0.0 -->
      <g style="fill: #262626" transform="translate(43.3316 593.861607) scale(0.2 -0.2)">
       <use xlink:href="#ArialMT-30"/>
       <use xlink:href="#ArialMT-2e" x="55.615234"/>
       <use xlink:href="#ArialMT-30" x="83.398438"/>
      </g>
     </g>
    </g>
    <g id="ytick_2">
     <g id="line2d_25">
      <path d="M 79.4316 473.291355 
L 1067.5584 473.291355 
" clip-path="url(#pb3575ef70c)" style="fill: none; stroke: #cccccc; stroke-width: 0.8; stroke-linecap: round"/>
     </g>
     <g id="text_25">
      <!-- 0.2 -->
      <g style="fill: #262626" transform="translate(43.3316 480.449168) scale(0.2 -0.2)">
       <use xlink:href="#ArialMT-30"/>
       <use xlink:href="#ArialMT-2e" x="55.615234"/>
       <use xlink:href="#ArialMT-32" x="83.398438"/>
      </g>
     </g>
    </g>
    <g id="ytick_3">
     <g id="line2d_26">
      <path d="M 79.4316 359.878917 
L 1067.5584 359.878917 
" clip-path="url(#pb3575ef70c)" style="fill: none; stroke: #cccccc; stroke-width: 0.8; stroke-linecap: round"/>
     </g>
     <g id="text_26">
      <!-- 0.4 -->
      <g style="fill: #262626" transform="translate(43.3316 367.036729) scale(0.2 -0.2)">
       <use xlink:href="#ArialMT-30"/>
       <use xlink:href="#ArialMT-2e" x="55.615234"/>
       <use xlink:href="#ArialMT-34" x="83.398438"/>
      </g>
     </g>
    </g>
    <g id="ytick_4">
     <g id="line2d_27">
      <path d="M 79.4316 246.466478 
L 1067.5584 246.466478 
" clip-path="url(#pb3575ef70c)" style="fill: none; stroke: #cccccc; stroke-width: 0.8; stroke-linecap: round"/>
     </g>
     <g id="text_27">
      <!-- 0.6 -->
      <g style="fill: #262626" transform="translate(43.3316 253.62429) scale(0.2 -0.2)">
       <use xlink:href="#ArialMT-30"/>
       <use xlink:href="#ArialMT-2e" x="55.615234"/>
       <use xlink:href="#ArialMT-36" x="83.398438"/>
      </g>
     </g>
    </g>
    <g id="ytick_5">
     <g id="line2d_28">
      <path d="M 79.4316 133.054039 
L 1067.5584 133.054039 
" clip-path="url(#pb3575ef70c)" style="fill: none; stroke: #cccccc; stroke-width: 0.8; stroke-linecap: round"/>
     </g>
     <g id="text_28">
      <!-- 0.8 -->
      <g style="fill: #262626" transform="translate(43.3316 140.211851) scale(0.2 -0.2)">
       <use xlink:href="#ArialMT-30"/>
       <use xlink:href="#ArialMT-2e" x="55.615234"/>
       <use xlink:href="#ArialMT-38" x="83.398438"/>
      </g>
     </g>
    </g>
    <g id="ytick_6">
     <g id="line2d_29">
      <path d="M 79.4316 19.6416 
L 1067.5584 19.6416 
" clip-path="url(#pb3575ef70c)" style="fill: none; stroke: #cccccc; stroke-width: 0.8; stroke-linecap: round"/>
     </g>
     <g id="text_29">
      <!-- 1.0 -->
      <g style="fill: #262626" transform="translate(43.3316 26.799412) scale(0.2 -0.2)">
       <use xlink:href="#ArialMT-31"/>
       <use xlink:href="#ArialMT-2e" x="55.615234"/>
       <use xlink:href="#ArialMT-30" x="83.398438"/>
      </g>
     </g>
    </g>
    <g id="text_30">
     <!-- Mean Accuracy -->
     <g style="fill: #262626" transform="translate(28.701288 383.460666) rotate(-90) scale(0.22 -0.22)">
      <defs>
       <path id="Arial-BoldMT-4d" d="M 453 0 
L 453 4581 
L 1838 4581 
L 2669 1456 
L 3491 4581 
L 4878 4581 
L 4878 0 
L 4019 0 
L 4019 3606 
L 3109 0 
L 2219 0 
L 1313 3606 
L 1313 0 
L 453 0 
z
" transform="scale(0.015625)"/>
       <path id="Arial-BoldMT-65" d="M 2381 1056 
L 3256 909 
Q 3088 428 2723 176 
Q 2359 -75 1813 -75 
Q 947 -75 531 491 
Q 203 944 203 1634 
Q 203 2459 634 2926 
Q 1066 3394 1725 3394 
Q 2466 3394 2894 2905 
Q 3322 2416 3303 1406 
L 1103 1406 
Q 1113 1016 1316 798 
Q 1519 581 1822 581 
Q 2028 581 2168 693 
Q 2309 806 2381 1056 
z
M 2431 1944 
Q 2422 2325 2234 2523 
Q 2047 2722 1778 2722 
Q 1491 2722 1303 2513 
Q 1116 2303 1119 1944 
L 2431 1944 
z
" transform="scale(0.015625)"/>
       <path id="Arial-BoldMT-61" d="M 1116 2306 
L 319 2450 
Q 453 2931 781 3162 
Q 1109 3394 1756 3394 
Q 2344 3394 2631 3255 
Q 2919 3116 3036 2902 
Q 3153 2688 3153 2116 
L 3144 1091 
Q 3144 653 3186 445 
Q 3228 238 3344 0 
L 2475 0 
Q 2441 88 2391 259 
Q 2369 338 2359 363 
Q 2134 144 1878 34 
Q 1622 -75 1331 -75 
Q 819 -75 523 203 
Q 228 481 228 906 
Q 228 1188 362 1408 
Q 497 1628 739 1745 
Q 981 1863 1438 1950 
Q 2053 2066 2291 2166 
L 2291 2253 
Q 2291 2506 2166 2614 
Q 2041 2722 1694 2722 
Q 1459 2722 1328 2630 
Q 1197 2538 1116 2306 
z
M 2291 1594 
Q 2122 1538 1756 1459 
Q 1391 1381 1278 1306 
Q 1106 1184 1106 997 
Q 1106 813 1243 678 
Q 1381 544 1594 544 
Q 1831 544 2047 700 
Q 2206 819 2256 991 
Q 2291 1103 2291 1419 
L 2291 1594 
z
" transform="scale(0.015625)"/>
       <path id="Arial-BoldMT-6e" d="M 3478 0 
L 2600 0 
L 2600 1694 
Q 2600 2231 2544 2389 
Q 2488 2547 2361 2634 
Q 2234 2722 2056 2722 
Q 1828 2722 1647 2597 
Q 1466 2472 1398 2265 
Q 1331 2059 1331 1503 
L 1331 0 
L 453 0 
L 453 3319 
L 1269 3319 
L 1269 2831 
Q 1703 3394 2363 3394 
Q 2653 3394 2893 3289 
Q 3134 3184 3257 3021 
Q 3381 2859 3429 2653 
Q 3478 2447 3478 2063 
L 3478 0 
z
" transform="scale(0.015625)"/>
       <path id="Arial-BoldMT-20" transform="scale(0.015625)"/>
       <path id="Arial-BoldMT-41" d="M 4597 0 
L 3591 0 
L 3191 1041 
L 1359 1041 
L 981 0 
L 0 0 
L 1784 4581 
L 2763 4581 
L 4597 0 
z
M 2894 1813 
L 2263 3513 
L 1644 1813 
L 2894 1813 
z
" transform="scale(0.015625)"/>
       <path id="Arial-BoldMT-63" d="M 3353 2338 
L 2488 2181 
Q 2444 2441 2289 2572 
Q 2134 2703 1888 2703 
Q 1559 2703 1364 2476 
Q 1169 2250 1169 1719 
Q 1169 1128 1367 884 
Q 1566 641 1900 641 
Q 2150 641 2309 783 
Q 2469 925 2534 1272 
L 3397 1125 
Q 3263 531 2881 228 
Q 2500 -75 1859 -75 
Q 1131 -75 698 384 
Q 266 844 266 1656 
Q 266 2478 700 2936 
Q 1134 3394 1875 3394 
Q 2481 3394 2839 3133 
Q 3197 2872 3353 2338 
z
" transform="scale(0.015625)"/>
       <path id="Arial-BoldMT-75" d="M 2644 0 
L 2644 497 
Q 2463 231 2167 78 
Q 1872 -75 1544 -75 
Q 1209 -75 943 72 
Q 678 219 559 484 
Q 441 750 441 1219 
L 441 3319 
L 1319 3319 
L 1319 1794 
Q 1319 1094 1367 936 
Q 1416 778 1544 686 
Q 1672 594 1869 594 
Q 2094 594 2272 717 
Q 2450 841 2515 1023 
Q 2581 1206 2581 1919 
L 2581 3319 
L 3459 3319 
L 3459 0 
L 2644 0 
z
" transform="scale(0.015625)"/>
       <path id="Arial-BoldMT-72" d="M 1300 0 
L 422 0 
L 422 3319 
L 1238 3319 
L 1238 2847 
Q 1447 3181 1614 3287 
Q 1781 3394 1994 3394 
Q 2294 3394 2572 3228 
L 2300 2463 
Q 2078 2606 1888 2606 
Q 1703 2606 1575 2504 
Q 1447 2403 1373 2137 
Q 1300 1872 1300 1025 
L 1300 0 
z
" transform="scale(0.015625)"/>
       <path id="Arial-BoldMT-79" d="M 44 3319 
L 978 3319 
L 1772 963 
L 2547 3319 
L 3456 3319 
L 2284 125 
L 2075 -453 
Q 1959 -744 1854 -897 
Q 1750 -1050 1614 -1145 
Q 1478 -1241 1279 -1294 
Q 1081 -1347 831 -1347 
Q 578 -1347 334 -1294 
L 256 -606 
Q 463 -647 628 -647 
Q 934 -647 1081 -467 
Q 1228 -288 1306 -9 
L 44 3319 
z
" transform="scale(0.015625)"/>
      </defs>
      <use xlink:href="#Arial-BoldMT-4d"/>
      <use xlink:href="#Arial-BoldMT-65" x="83.300781"/>
      <use xlink:href="#Arial-BoldMT-61" x="138.916016"/>
      <use xlink:href="#Arial-BoldMT-6e" x="194.53125"/>
      <use xlink:href="#Arial-BoldMT-20" x="255.615234"/>
      <use xlink:href="#Arial-BoldMT-41" x="279.648438"/>
      <use xlink:href="#Arial-BoldMT-63" x="351.865234"/>
      <use xlink:href="#Arial-BoldMT-63" x="407.480469"/>
      <use xlink:href="#Arial-BoldMT-75" x="463.095703"/>
      <use xlink:href="#Arial-BoldMT-72" x="524.179688"/>
      <use xlink:href="#Arial-BoldMT-61" x="563.095703"/>
      <use xlink:href="#Arial-BoldMT-63" x="618.710938"/>
      <use xlink:href="#Arial-BoldMT-79" x="674.326172"/>
     </g>
    </g>
   </g>
   <g id="PolyCollection_1"/>
   <g id="PolyCollection_2"/>
   <g id="PolyCollection_3"/>
   <g id="line2d_30">
    <path d="M 124.346455 171.496995 
L 165.17814 258.759812 
L 206.009826 357.057788 
L 246.841512 327.308434 
L 287.673198 263.157725 
L 328.504884 280.351619 
L 369.33657 299.240712 
L 410.168256 255.097435 
L 450.999942 281.256518 
L 491.831628 254.453823 
L 532.663314 376.015365 
L 573.495 360.113096 
L 614.326686 425.60535 
L 655.158372 313.690223 
L 695.990058 323.544861 
L 736.821744 327.449248 
L 777.65343 311.469279 
L 818.485116 277.612625 
L 859.316802 284.913498 
L 900.148488 323.958221 
L 940.980174 331.214061 
L 981.81186 304.157896 
L 1022.643545 302.103391 
" clip-path="url(#pb3575ef70c)" style="fill: none; stroke: #611f53; stroke-width: 1.5; stroke-linecap: round"/>
    <defs>
     <path id="mf6a70085ac" d="M 0 5 
C 1.326016 5 2.597899 4.473168 3.535534 3.535534 
C 4.473168 2.597899 5 1.326016 5 0 
C 5 -1.326016 4.473168 -2.597899 3.535534 -3.535534 
C 2.597899 -4.473168 1.326016 -5 0 -5 
C -1.326016 -5 -2.597899 -4.473168 -3.535534 -3.535534 
C -4.473168 -2.597899 -5 -1.326016 -5 0 
C -5 1.326016 -4.473168 2.597899 -3.535534 3.535534 
C -2.597899 4.473168 -1.326016 5 0 5 
z
" style="stroke: #ffffff; stroke-width: 0.75"/>
    </defs>
    <g clip-path="url(#pb3575ef70c)">
     <use xlink:href="#mf6a70085ac" x="124.346455" y="171.496995" style="fill: #611f53; stroke: #ffffff; stroke-width: 0.75"/>
     <use xlink:href="#mf6a70085ac" x="165.17814" y="258.759812" style="fill: #611f53; stroke: #ffffff; stroke-width: 0.75"/>
     <use xlink:href="#mf6a70085ac" x="206.009826" y="357.057788" style="fill: #611f53; stroke: #ffffff; stroke-width: 0.75"/>
     <use xlink:href="#mf6a70085ac" x="246.841512" y="327.308434" style="fill: #611f53; stroke: #ffffff; stroke-width: 0.75"/>
     <use xlink:href="#mf6a70085ac" x="287.673198" y="263.157725" style="fill: #611f53; stroke: #ffffff; stroke-width: 0.75"/>
     <use xlink:href="#mf6a70085ac" x="328.504884" y="280.351619" style="fill: #611f53; stroke: #ffffff; stroke-width: 0.75"/>
     <use xlink:href="#mf6a70085ac" x="369.33657" y="299.240712" style="fill: #611f53; stroke: #ffffff; stroke-width: 0.75"/>
     <use xlink:href="#mf6a70085ac" x="410.168256" y="255.097435" style="fill: #611f53; stroke: #ffffff; stroke-width: 0.75"/>
     <use xlink:href="#mf6a70085ac" x="450.999942" y="281.256518" style="fill: #611f53; stroke: #ffffff; stroke-width: 0.75"/>
     <use xlink:href="#mf6a70085ac" x="491.831628" y="254.453823" style="fill: #611f53; stroke: #ffffff; stroke-width: 0.75"/>
     <use xlink:href="#mf6a70085ac" x="532.663314" y="376.015365" style="fill: #611f53; stroke: #ffffff; stroke-width: 0.75"/>
     <use xlink:href="#mf6a70085ac" x="573.495" y="360.113096" style="fill: #611f53; stroke: #ffffff; stroke-width: 0.75"/>
     <use xlink:href="#mf6a70085ac" x="614.326686" y="425.60535" style="fill: #611f53; stroke: #ffffff; stroke-width: 0.75"/>
     <use xlink:href="#mf6a70085ac" x="655.158372" y="313.690223" style="fill: #611f53; stroke: #ffffff; stroke-width: 0.75"/>
     <use xlink:href="#mf6a70085ac" x="695.990058" y="323.544861" style="fill: #611f53; stroke: #ffffff; stroke-width: 0.75"/>
     <use xlink:href="#mf6a70085ac" x="736.821744" y="327.449248" style="fill: #611f53; stroke: #ffffff; stroke-width: 0.75"/>
     <use xlink:href="#mf6a70085ac" x="777.65343" y="311.469279" style="fill: #611f53; stroke: #ffffff; stroke-width: 0.75"/>
     <use xlink:href="#mf6a70085ac" x="818.485116" y="277.612625" style="fill: #611f53; stroke: #ffffff; stroke-width: 0.75"/>
     <use xlink:href="#mf6a70085ac" x="859.316802" y="284.913498" style="fill: #611f53; stroke: #ffffff; stroke-width: 0.75"/>
     <use xlink:href="#mf6a70085ac" x="900.148488" y="323.958221" style="fill: #611f53; stroke: #ffffff; stroke-width: 0.75"/>
     <use xlink:href="#mf6a70085ac" x="940.980174" y="331.214061" style="fill: #611f53; stroke: #ffffff; stroke-width: 0.75"/>
     <use xlink:href="#mf6a70085ac" x="981.81186" y="304.157896" style="fill: #611f53; stroke: #ffffff; stroke-width: 0.75"/>
     <use xlink:href="#mf6a70085ac" x="1022.643545" y="302.103391" style="fill: #611f53; stroke: #ffffff; stroke-width: 0.75"/>
    </g>
   </g>
   <g id="line2d_31">
    <path d="M 124.346455 182.783297 
L 165.17814 286.475327 
L 206.009826 259.055891 
L 246.841512 139.330729 
L 287.673198 291.686661 
L 328.504884 238.554517 
L 369.33657 268.200826 
L 410.168256 233.827094 
L 450.999942 261.09227 
L 491.831628 181.190792 
L 532.663314 266.85714 
L 573.495 326.030548 
L 614.326686 342.450607 
L 655.158372 273.437238 
L 695.990058 276.305334 
L 736.821744 267.342374 
L 777.65343 297.173785 
L 818.485116 196.798408 
L 859.316802 361.799191 
L 900.148488 372.26542 
L 940.980174 290.780228 
L 981.81186 296.999771 
L 1022.643545 254.325106 
" clip-path="url(#pb3575ef70c)" style="fill: none; stroke: #cb1b4f; stroke-width: 1.5; stroke-linecap: round"/>
    <defs>
     <path id="mfcd22c89ad" d="M 0 5 
C 1.326016 5 2.597899 4.473168 3.535534 3.535534 
C 4.473168 2.597899 5 1.326016 5 0 
C 5 -1.326016 4.473168 -2.597899 3.535534 -3.535534 
C 2.597899 -4.473168 1.326016 -5 0 -5 
C -1.326016 -5 -2.597899 -4.473168 -3.535534 -3.535534 
C -4.473168 -2.597899 -5 -1.326016 -5 0 
C -5 1.326016 -4.473168 2.597899 -3.535534 3.535534 
C -2.597899 4.473168 -1.326016 5 0 5 
z
" style="stroke: #ffffff; stroke-width: 0.75"/>
    </defs>
    <g clip-path="url(#pb3575ef70c)">
     <use xlink:href="#mfcd22c89ad" x="124.346455" y="182.783297" style="fill: #cb1b4f; stroke: #ffffff; stroke-width: 0.75"/>
     <use xlink:href="#mfcd22c89ad" x="165.17814" y="286.475327" style="fill: #cb1b4f; stroke: #ffffff; stroke-width: 0.75"/>
     <use xlink:href="#mfcd22c89ad" x="206.009826" y="259.055891" style="fill: #cb1b4f; stroke: #ffffff; stroke-width: 0.75"/>
     <use xlink:href="#mfcd22c89ad" x="246.841512" y="139.330729" style="fill: #cb1b4f; stroke: #ffffff; stroke-width: 0.75"/>
     <use xlink:href="#mfcd22c89ad" x="287.673198" y="291.686661" style="fill: #cb1b4f; stroke: #ffffff; stroke-width: 0.75"/>
     <use xlink:href="#mfcd22c89ad" x="328.504884" y="238.554517" style="fill: #cb1b4f; stroke: #ffffff; stroke-width: 0.75"/>
     <use xlink:href="#mfcd22c89ad" x="369.33657" y="268.200826" style="fill: #cb1b4f; stroke: #ffffff; stroke-width: 0.75"/>
     <use xlink:href="#mfcd22c89ad" x="410.168256" y="233.827094" style="fill: #cb1b4f; stroke: #ffffff; stroke-width: 0.75"/>
     <use xlink:href="#mfcd22c89ad" x="450.999942" y="261.09227" style="fill: #cb1b4f; stroke: #ffffff; stroke-width: 0.75"/>
     <use xlink:href="#mfcd22c89ad" x="491.831628" y="181.190792" style="fill: #cb1b4f; stroke: #ffffff; stroke-width: 0.75"/>
     <use xlink:href="#mfcd22c89ad" x="532.663314" y="266.85714" style="fill: #cb1b4f; stroke: #ffffff; stroke-width: 0.75"/>
     <use xlink:href="#mfcd22c89ad" x="573.495" y="326.030548" style="fill: #cb1b4f; stroke: #ffffff; stroke-width: 0.75"/>
     <use xlink:href="#mfcd22c89ad" x="614.326686" y="342.450607" style="fill: #cb1b4f; stroke: #ffffff; stroke-width: 0.75"/>
     <use xlink:href="#mfcd22c89ad" x="655.158372" y="273.437238" style="fill: #cb1b4f; stroke: #ffffff; stroke-width: 0.75"/>
     <use xlink:href="#mfcd22c89ad" x="695.990058" y="276.305334" style="fill: #cb1b4f; stroke: #ffffff; stroke-width: 0.75"/>
     <use xlink:href="#mfcd22c89ad" x="736.821744" y="267.342374" style="fill: #cb1b4f; stroke: #ffffff; stroke-width: 0.75"/>
     <use xlink:href="#mfcd22c89ad" x="777.65343" y="297.173785" style="fill: #cb1b4f; stroke: #ffffff; stroke-width: 0.75"/>
     <use xlink:href="#mfcd22c89ad" x="818.485116" y="196.798408" style="fill: #cb1b4f; stroke: #ffffff; stroke-width: 0.75"/>
     <use xlink:href="#mfcd22c89ad" x="859.316802" y="361.799191" style="fill: #cb1b4f; stroke: #ffffff; stroke-width: 0.75"/>
     <use xlink:href="#mfcd22c89ad" x="900.148488" y="372.26542" style="fill: #cb1b4f; stroke: #ffffff; stroke-width: 0.75"/>
     <use xlink:href="#mfcd22c89ad" x="940.980174" y="290.780228" style="fill: #cb1b4f; stroke: #ffffff; stroke-width: 0.75"/>
     <use xlink:href="#mfcd22c89ad" x="981.81186" y="296.999771" style="fill: #cb1b4f; stroke: #ffffff; stroke-width: 0.75"/>
     <use xlink:href="#mfcd22c89ad" x="1022.643545" y="254.325106" style="fill: #cb1b4f; stroke: #ffffff; stroke-width: 0.75"/>
    </g>
   </g>
   <g id="line2d_32">
    <path d="M 124.346455 208.662331 
L 206.009826 246.466478 
L 246.841512 279.545106 
L 328.504884 384.181582 
L 369.33657 144.100705 
L 410.168256 208.662331 
L 450.999942 95.099325 
L 491.831628 303.172697 
L 532.663314 138.765093 
L 573.495 444.938246 
L 614.326686 141.154927 
L 655.158372 427.92638 
L 695.990058 378.225046 
L 736.821744 109.85604 
L 777.65343 303.172697 
L 818.485116 232.289923 
L 859.316802 135.576691 
L 900.148488 67.740625 
L 940.980174 508.472726 
L 981.81186 183.094386 
L 1022.643545 359.905651 
" clip-path="url(#pb3575ef70c)" style="fill: none; stroke: #f58860; stroke-width: 1.5; stroke-linecap: round"/>
    <defs>
     <path id="m60332d5a8c" d="M 0 5 
C 1.326016 5 2.597899 4.473168 3.535534 3.535534 
C 4.473168 2.597899 5 1.326016 5 0 
C 5 -1.326016 4.473168 -2.597899 3.535534 -3.535534 
C 2.597899 -4.473168 1.326016 -5 0 -5 
C -1.326016 -5 -2.597899 -4.473168 -3.535534 -3.535534 
C -4.473168 -2.597899 -5 -1.326016 -5 0 
C -5 1.326016 -4.473168 2.597899 -3.535534 3.535534 
C -2.597899 4.473168 -1.326016 5 0 5 
z
" style="stroke: #ffffff; stroke-width: 0.75"/>
    </defs>
    <g clip-path="url(#pb3575ef70c)">
     <use xlink:href="#m60332d5a8c" x="124.346455" y="208.662331" style="fill: #f58860; stroke: #ffffff; stroke-width: 0.75"/>
     <use xlink:href="#m60332d5a8c" x="206.009826" y="246.466478" style="fill: #f58860; stroke: #ffffff; stroke-width: 0.75"/>
     <use xlink:href="#m60332d5a8c" x="246.841512" y="279.545106" style="fill: #f58860; stroke: #ffffff; stroke-width: 0.75"/>
     <use xlink:href="#m60332d5a8c" x="328.504884" y="384.181582" style="fill: #f58860; stroke: #ffffff; stroke-width: 0.75"/>
     <use xlink:href="#m60332d5a8c" x="369.33657" y="144.100705" style="fill: #f58860; stroke: #ffffff; stroke-width: 0.75"/>
     <use xlink:href="#m60332d5a8c" x="410.168256" y="208.662331" style="fill: #f58860; stroke: #ffffff; stroke-width: 0.75"/>
     <use xlink:href="#m60332d5a8c" x="450.999942" y="95.099325" style="fill: #f58860; stroke: #ffffff; stroke-width: 0.75"/>
     <use xlink:href="#m60332d5a8c" x="491.831628" y="303.172697" style="fill: #f58860; stroke: #ffffff; stroke-width: 0.75"/>
     <use xlink:href="#m60332d5a8c" x="532.663314" y="138.765093" style="fill: #f58860; stroke: #ffffff; stroke-width: 0.75"/>
     <use xlink:href="#m60332d5a8c" x="573.495" y="444.938246" style="fill: #f58860; stroke: #ffffff; stroke-width: 0.75"/>
     <use xlink:href="#m60332d5a8c" x="614.326686" y="141.154927" style="fill: #f58860; stroke: #ffffff; stroke-width: 0.75"/>
     <use xlink:href="#m60332d5a8c" x="655.158372" y="427.92638" style="fill: #f58860; stroke: #ffffff; stroke-width: 0.75"/>
     <use xlink:href="#m60332d5a8c" x="695.990058" y="378.225046" style="fill: #f58860; stroke: #ffffff; stroke-width: 0.75"/>
     <use xlink:href="#m60332d5a8c" x="736.821744" y="109.85604" style="fill: #f58860; stroke: #ffffff; stroke-width: 0.75"/>
     <use xlink:href="#m60332d5a8c" x="777.65343" y="303.172697" style="fill: #f58860; stroke: #ffffff; stroke-width: 0.75"/>
     <use xlink:href="#m60332d5a8c" x="818.485116" y="232.289923" style="fill: #f58860; stroke: #ffffff; stroke-width: 0.75"/>
     <use xlink:href="#m60332d5a8c" x="859.316802" y="135.576691" style="fill: #f58860; stroke: #ffffff; stroke-width: 0.75"/>
     <use xlink:href="#m60332d5a8c" x="900.148488" y="67.740625" style="fill: #f58860; stroke: #ffffff; stroke-width: 0.75"/>
     <use xlink:href="#m60332d5a8c" x="940.980174" y="508.472726" style="fill: #f58860; stroke: #ffffff; stroke-width: 0.75"/>
     <use xlink:href="#m60332d5a8c" x="981.81186" y="183.094386" style="fill: #f58860; stroke: #ffffff; stroke-width: 0.75"/>
     <use xlink:href="#m60332d5a8c" x="1022.643545" y="359.905651" style="fill: #f58860; stroke: #ffffff; stroke-width: 0.75"/>
    </g>
   </g>
   <g id="line2d_33"/>
   <g id="line2d_34"/>
   <g id="line2d_35"/>
   <g id="legend_1">
    <g id="patch_3">
     <path d="M 140.73794 556.373246 
L 338.758721 556.373246 
Q 342.158721 556.373246 342.158721 552.973246 
L 342.158721 456.838246 
Q 342.158721 453.438246 338.758721 453.438246 
L 140.73794 453.438246 
Q 137.33794 453.438246 137.33794 456.838246 
L 137.33794 552.973246 
Q 137.33794 556.373246 140.73794 556.373246 
z
" style="fill: #ffffff; opacity: 0.8; stroke: #cccccc; stroke-width: 0.8; stroke-linejoin: miter"/>
    </g>
    <g id="text_31">
     <!--   Explainer (median) -->
     <g style="fill: #262626" transform="translate(158.982393 472.613714) scale(0.17 -0.17)">
      <defs>
       <path id="Arial-BoldMT-45" d="M 466 0 
L 466 4581 
L 3863 4581 
L 3863 3806 
L 1391 3806 
L 1391 2791 
L 3691 2791 
L 3691 2019 
L 1391 2019 
L 1391 772 
L 3950 772 
L 3950 0 
L 466 0 
z
" transform="scale(0.015625)"/>
       <path id="Arial-BoldMT-78" d="M 38 0 
L 1234 1709 
L 88 3319 
L 1159 3319 
L 1747 2406 
L 2366 3319 
L 3397 3319 
L 2272 1747 
L 3500 0 
L 2422 0 
L 1747 1028 
L 1066 0 
L 38 0 
z
" transform="scale(0.015625)"/>
       <path id="Arial-BoldMT-70" d="M 434 3319 
L 1253 3319 
L 1253 2831 
Q 1413 3081 1684 3237 
Q 1956 3394 2288 3394 
Q 2866 3394 3269 2941 
Q 3672 2488 3672 1678 
Q 3672 847 3265 386 
Q 2859 -75 2281 -75 
Q 2006 -75 1782 34 
Q 1559 144 1313 409 
L 1313 -1263 
L 434 -1263 
L 434 3319 
z
M 1303 1716 
Q 1303 1156 1525 889 
Q 1747 622 2066 622 
Q 2372 622 2575 867 
Q 2778 1113 2778 1672 
Q 2778 2194 2568 2447 
Q 2359 2700 2050 2700 
Q 1728 2700 1515 2451 
Q 1303 2203 1303 1716 
z
" transform="scale(0.015625)"/>
       <path id="Arial-BoldMT-6c" d="M 459 0 
L 459 4581 
L 1338 4581 
L 1338 0 
L 459 0 
z
" transform="scale(0.015625)"/>
       <path id="Arial-BoldMT-69" d="M 459 3769 
L 459 4581 
L 1338 4581 
L 1338 3769 
L 459 3769 
z
M 459 0 
L 459 3319 
L 1338 3319 
L 1338 0 
L 459 0 
z
" transform="scale(0.015625)"/>
       <path id="Arial-BoldMT-28" d="M 1916 -1347 
L 1313 -1347 
Q 834 -625 584 153 
Q 334 931 334 1659 
Q 334 2563 644 3369 
Q 913 4069 1325 4659 
L 1925 4659 
Q 1497 3713 1336 3048 
Q 1175 2384 1175 1641 
Q 1175 1128 1270 590 
Q 1366 53 1531 -431 
Q 1641 -750 1916 -1347 
z
" transform="scale(0.015625)"/>
       <path id="Arial-BoldMT-6d" d="M 394 3319 
L 1203 3319 
L 1203 2866 
Q 1638 3394 2238 3394 
Q 2556 3394 2790 3262 
Q 3025 3131 3175 2866 
Q 3394 3131 3647 3262 
Q 3900 3394 4188 3394 
Q 4553 3394 4806 3245 
Q 5059 3097 5184 2809 
Q 5275 2597 5275 2122 
L 5275 0 
L 4397 0 
L 4397 1897 
Q 4397 2391 4306 2534 
Q 4184 2722 3931 2722 
Q 3747 2722 3584 2609 
Q 3422 2497 3350 2280 
Q 3278 2063 3278 1594 
L 3278 0 
L 2400 0 
L 2400 1819 
Q 2400 2303 2353 2443 
Q 2306 2584 2207 2653 
Q 2109 2722 1941 2722 
Q 1738 2722 1575 2612 
Q 1413 2503 1342 2297 
Q 1272 2091 1272 1613 
L 1272 0 
L 394 0 
L 394 3319 
z
" transform="scale(0.015625)"/>
       <path id="Arial-BoldMT-64" d="M 3503 0 
L 2688 0 
L 2688 488 
Q 2484 203 2207 64 
Q 1931 -75 1650 -75 
Q 1078 -75 670 386 
Q 263 847 263 1672 
Q 263 2516 659 2955 
Q 1056 3394 1663 3394 
Q 2219 3394 2625 2931 
L 2625 4581 
L 3503 4581 
L 3503 0 
z
M 1159 1731 
Q 1159 1200 1306 963 
Q 1519 619 1900 619 
Q 2203 619 2415 876 
Q 2628 1134 2628 1647 
Q 2628 2219 2422 2470 
Q 2216 2722 1894 2722 
Q 1581 2722 1370 2473 
Q 1159 2225 1159 1731 
z
" transform="scale(0.015625)"/>
       <path id="Arial-BoldMT-29" d="M 216 -1347 
Q 475 -791 581 -494 
Q 688 -197 778 190 
Q 869 578 912 926 
Q 956 1275 956 1641 
Q 956 2384 797 3048 
Q 638 3713 209 4659 
L 806 4659 
Q 1278 3988 1539 3234 
Q 1800 2481 1800 1706 
Q 1800 1053 1594 306 
Q 1359 -531 822 -1347 
L 216 -1347 
z
" transform="scale(0.015625)"/>
      </defs>
      <use xlink:href="#Arial-BoldMT-20"/>
      <use xlink:href="#Arial-BoldMT-20" x="27.783203"/>
      <use xlink:href="#Arial-BoldMT-45" x="55.566406"/>
      <use xlink:href="#Arial-BoldMT-78" x="122.265625"/>
      <use xlink:href="#Arial-BoldMT-70" x="177.880859"/>
      <use xlink:href="#Arial-BoldMT-6c" x="238.964844"/>
      <use xlink:href="#Arial-BoldMT-61" x="266.748047"/>
      <use xlink:href="#Arial-BoldMT-69" x="322.363281"/>
      <use xlink:href="#Arial-BoldMT-6e" x="350.146484"/>
      <use xlink:href="#Arial-BoldMT-65" x="411.230469"/>
      <use xlink:href="#Arial-BoldMT-72" x="466.845703"/>
      <use xlink:href="#Arial-BoldMT-20" x="505.761719"/>
      <use xlink:href="#Arial-BoldMT-28" x="533.544922"/>
      <use xlink:href="#Arial-BoldMT-6d" x="566.845703"/>
      <use xlink:href="#Arial-BoldMT-65" x="655.761719"/>
      <use xlink:href="#Arial-BoldMT-64" x="711.376953"/>
      <use xlink:href="#Arial-BoldMT-69" x="772.460938"/>
      <use xlink:href="#Arial-BoldMT-61" x="800.244141"/>
      <use xlink:href="#Arial-BoldMT-6e" x="855.859375"/>
      <use xlink:href="#Arial-BoldMT-29" x="916.943359"/>
     </g>
    </g>
    <g id="line2d_36">
     <path d="M 144.13794 491.127777 
L 161.13794 491.127777 
L 178.13794 491.127777 
" style="fill: none; stroke: #611f53; stroke-width: 1.5; stroke-linecap: round"/>
    </g>
    <g id="text_32">
     <!-- LIME-HPO (0.50) -->
     <g style="fill: #262626" transform="translate(191.73794 497.077777) scale(0.17 -0.17)">
      <defs>
       <path id="ArialMT-4c" d="M 469 0 
L 469 4581 
L 1075 4581 
L 1075 541 
L 3331 541 
L 3331 0 
L 469 0 
z
" transform="scale(0.015625)"/>
       <path id="ArialMT-49" d="M 597 0 
L 597 4581 
L 1203 4581 
L 1203 0 
L 597 0 
z
" transform="scale(0.015625)"/>
       <path id="ArialMT-4d" d="M 475 0 
L 475 4581 
L 1388 4581 
L 2472 1338 
Q 2622 884 2691 659 
Q 2769 909 2934 1394 
L 4031 4581 
L 4847 4581 
L 4847 0 
L 4263 0 
L 4263 3834 
L 2931 0 
L 2384 0 
L 1059 3900 
L 1059 0 
L 475 0 
z
" transform="scale(0.015625)"/>
       <path id="ArialMT-48" d="M 513 0 
L 513 4581 
L 1119 4581 
L 1119 2700 
L 3500 2700 
L 3500 4581 
L 4106 4581 
L 4106 0 
L 3500 0 
L 3500 2159 
L 1119 2159 
L 1119 0 
L 513 0 
z
" transform="scale(0.015625)"/>
       <path id="ArialMT-50" d="M 494 0 
L 494 4581 
L 2222 4581 
Q 2678 4581 2919 4538 
Q 3256 4481 3484 4323 
Q 3713 4166 3852 3881 
Q 3991 3597 3991 3256 
Q 3991 2672 3619 2267 
Q 3247 1863 2275 1863 
L 1100 1863 
L 1100 0 
L 494 0 
z
M 1100 2403 
L 2284 2403 
Q 2872 2403 3119 2622 
Q 3366 2841 3366 3238 
Q 3366 3525 3220 3729 
Q 3075 3934 2838 4000 
Q 2684 4041 2272 4041 
L 1100 4041 
L 1100 2403 
z
" transform="scale(0.015625)"/>
       <path id="ArialMT-4f" d="M 309 2231 
Q 309 3372 921 4017 
Q 1534 4663 2503 4663 
Q 3138 4663 3647 4359 
Q 4156 4056 4423 3514 
Q 4691 2972 4691 2284 
Q 4691 1588 4409 1038 
Q 4128 488 3612 205 
Q 3097 -78 2500 -78 
Q 1853 -78 1343 234 
Q 834 547 571 1087 
Q 309 1628 309 2231 
z
M 934 2222 
Q 934 1394 1379 917 
Q 1825 441 2497 441 
Q 3181 441 3623 922 
Q 4066 1403 4066 2288 
Q 4066 2847 3877 3264 
Q 3688 3681 3323 3911 
Q 2959 4141 2506 4141 
Q 1863 4141 1398 3698 
Q 934 3256 934 2222 
z
" transform="scale(0.015625)"/>
      </defs>
      <use xlink:href="#ArialMT-4c"/>
      <use xlink:href="#ArialMT-49" x="55.615234"/>
      <use xlink:href="#ArialMT-4d" x="83.398438"/>
      <use xlink:href="#ArialMT-45" x="166.699219"/>
      <use xlink:href="#ArialMT-2d" x="233.398438"/>
      <use xlink:href="#ArialMT-48" x="266.699219"/>
      <use xlink:href="#ArialMT-50" x="338.916016"/>
      <use xlink:href="#ArialMT-4f" x="405.615234"/>
      <use xlink:href="#ArialMT-20" x="483.398438"/>
      <use xlink:href="#ArialMT-28" x="511.181641"/>
      <use xlink:href="#ArialMT-30" x="544.482422"/>
      <use xlink:href="#ArialMT-2e" x="600.097656"/>
      <use xlink:href="#ArialMT-35" x="627.880859"/>
      <use xlink:href="#ArialMT-30" x="683.496094"/>
      <use xlink:href="#ArialMT-29" x="739.111328"/>
     </g>
    </g>
    <g id="line2d_37">
     <path d="M 144.13794 515.581214 
L 161.13794 515.581214 
L 178.13794 515.581214 
" style="fill: none; stroke: #cb1b4f; stroke-width: 1.5; stroke-linecap: round"/>
    </g>
    <g id="text_33">
     <!-- TimeLIME (0.56) -->
     <g style="fill: #262626" transform="translate(191.73794 521.531214) scale(0.17 -0.17)">
      <use xlink:href="#ArialMT-54"/>
      <use xlink:href="#ArialMT-69" x="57.333984"/>
      <use xlink:href="#ArialMT-6d" x="79.550781"/>
      <use xlink:href="#ArialMT-65" x="162.851562"/>
      <use xlink:href="#ArialMT-4c" x="218.466797"/>
      <use xlink:href="#ArialMT-49" x="274.082031"/>
      <use xlink:href="#ArialMT-4d" x="301.865234"/>
      <use xlink:href="#ArialMT-45" x="385.166016"/>
      <use xlink:href="#ArialMT-20" x="451.865234"/>
      <use xlink:href="#ArialMT-28" x="479.648438"/>
      <use xlink:href="#ArialMT-30" x="512.949219"/>
      <use xlink:href="#ArialMT-2e" x="568.564453"/>
      <use xlink:href="#ArialMT-35" x="596.347656"/>
      <use xlink:href="#ArialMT-36" x="651.962891"/>
      <use xlink:href="#ArialMT-29" x="707.578125"/>
     </g>
    </g>
    <g id="line2d_38">
     <path d="M 144.13794 540.045277 
L 161.13794 540.045277 
L 178.13794 540.045277 
" style="fill: none; stroke: #f58860; stroke-width: 1.5; stroke-linecap: round"/>
    </g>
    <g id="text_34">
     <!-- SQAPlanner (0.62) -->
     <g style="fill: #262626" transform="translate(191.73794 545.995277) scale(0.17 -0.17)">
      <defs>
       <path id="ArialMT-53" d="M 288 1472 
L 859 1522 
Q 900 1178 1048 958 
Q 1197 738 1509 602 
Q 1822 466 2213 466 
Q 2559 466 2825 569 
Q 3091 672 3220 851 
Q 3350 1031 3350 1244 
Q 3350 1459 3225 1620 
Q 3100 1781 2813 1891 
Q 2628 1963 1997 2114 
Q 1366 2266 1113 2400 
Q 784 2572 623 2826 
Q 463 3081 463 3397 
Q 463 3744 659 4045 
Q 856 4347 1234 4503 
Q 1613 4659 2075 4659 
Q 2584 4659 2973 4495 
Q 3363 4331 3572 4012 
Q 3781 3694 3797 3291 
L 3216 3247 
Q 3169 3681 2898 3903 
Q 2628 4125 2100 4125 
Q 1550 4125 1298 3923 
Q 1047 3722 1047 3438 
Q 1047 3191 1225 3031 
Q 1400 2872 2139 2705 
Q 2878 2538 3153 2413 
Q 3553 2228 3743 1945 
Q 3934 1663 3934 1294 
Q 3934 928 3725 604 
Q 3516 281 3123 101 
Q 2731 -78 2241 -78 
Q 1619 -78 1198 103 
Q 778 284 539 648 
Q 300 1013 288 1472 
z
" transform="scale(0.015625)"/>
       <path id="ArialMT-51" d="M 3966 491 
Q 4388 200 4744 66 
L 4566 -356 
Q 4072 -178 3581 206 
Q 3072 -78 2456 -78 
Q 1834 -78 1328 222 
Q 822 522 548 1065 
Q 275 1609 275 2291 
Q 275 2969 550 3525 
Q 825 4081 1333 4372 
Q 1841 4663 2469 4663 
Q 3103 4663 3612 4361 
Q 4122 4059 4389 3517 
Q 4656 2975 4656 2294 
Q 4656 1728 4484 1276 
Q 4313 825 3966 491 
z
M 2631 1266 
Q 3156 1119 3497 828 
Q 4031 1316 4031 2294 
Q 4031 2850 3842 3265 
Q 3653 3681 3289 3911 
Q 2925 4141 2472 4141 
Q 1794 4141 1347 3677 
Q 900 3213 900 2291 
Q 900 1397 1342 919 
Q 1784 441 2472 441 
Q 2797 441 3084 563 
Q 2800 747 2484 825 
L 2631 1266 
z
" transform="scale(0.015625)"/>
      </defs>
      <use xlink:href="#ArialMT-53"/>
      <use xlink:href="#ArialMT-51" x="66.699219"/>
      <use xlink:href="#ArialMT-41" x="144.482422"/>
      <use xlink:href="#ArialMT-50" x="211.181641"/>
      <use xlink:href="#ArialMT-6c" x="277.880859"/>
      <use xlink:href="#ArialMT-61" x="300.097656"/>
      <use xlink:href="#ArialMT-6e" x="355.712891"/>
      <use xlink:href="#ArialMT-6e" x="411.328125"/>
      <use xlink:href="#ArialMT-65" x="466.943359"/>
      <use xlink:href="#ArialMT-72" x="522.558594"/>
      <use xlink:href="#ArialMT-20" x="555.859375"/>
      <use xlink:href="#ArialMT-28" x="583.642578"/>
      <use xlink:href="#ArialMT-30" x="616.943359"/>
      <use xlink:href="#ArialMT-2e" x="672.558594"/>
      <use xlink:href="#ArialMT-36" x="700.341797"/>
      <use xlink:href="#ArialMT-32" x="755.957031"/>
      <use xlink:href="#ArialMT-29" x="811.572266"/>
     </g>
    </g>
   </g>
  </g>
 </g>
 <defs>
  <clipPath id="pb3575ef70c">
   <rect x="79.4316" y="19.6416" width="988.1268" height="567.062194"/>
  </clipPath>
 </defs>
</svg>
